<?xml version="1.0" encoding="utf-8"?>
<!-- Generator: Adobe Illustrator 16.0.3, SVG Export Plug-In . SVG Version: 6.00 Build 0)  -->
<!DOCTYPE svg PUBLIC "-//W3C//DTD SVG 1.1//EN" "http://www.w3.org/Graphics/SVG/1.1/DTD/svg11.dtd">
<svg version="1.1" xmlns="http://www.w3.org/2000/svg" xmlns:xlink="http://www.w3.org/1999/xlink" x="0px" y="0px"
	 width="611.333px" height="346.166px" viewBox="-199.417 -104.5 611.333 346.166"
	 enable-background="new -199.417 -104.5 611.333 346.166" xml:space="preserve">
<g id="to_love">
	<g>
		<g>
			<path fill="#777777" d="M-137.664,222.041C-137.713,222.172-137.699,222.135-137.664,222.041L-137.664,222.041z
				 M-106.516,222.525C-106.519,222.5-106.504,222.629-106.516,222.525L-106.516,222.525z M-106.548,222.531
				c-0.13-0.066-0.267-0.086-0.411-0.061c0.026,0.129,0.268,0.076,0.346,0.135C-106.762,222.566-106.579,222.535-106.548,222.531
				C-106.647,222.494-106.647,222.494-106.548,222.531C-106.678,222.465-106.606,222.541-106.548,222.531z M-152.593,220.111
				C-152.535,219.986-152.58,220.082-152.593,220.111L-152.593,220.111z M-81.792,221.42c-4.009-4.178-9.135-2.477-14.464-2.857
				c-5.898-0.42-12.382,1.207-18.159,0.076c0,0.305-11.281,0.273-12.396,0.186c-1.27-0.545-2.696,0.055-3.991,0.066
				c-1.968,0.018-3.906-0.15-5.878-0.057c-2.214,0.105-4.405,0.129-6.62,0.043c-1.672-0.064-4.025-0.641-5.63-0.006
				c0.094,0.066,0.188,0.131,0.285,0.193c-0.633,0.061-1.275-0.109-1.902,0.041c-0.407,0.025-0.946,0.051-1.282-0.227
				c0.424,0.309-0.517,0.273-0.666,0.063c-0.135,0.113-0.279,0.215-0.431,0.305c-0.226,0.07-0.451-0.09-0.671,0.082
				c0.269,0,0.622,0.395,0.774,0.586c-0.228-0.061,0.151,0.186,0.202,0.211c0.011-0.055,2.052,0.338,2.119,0.625
				c0.155,0.127,1.115,0.264,1.089,0.225c0.153,0.115,0.035-0.035,0.006-0.047c0.332-0.15,0.677,0.27,1.002,0.209
				c-0.151-0.615,0.768-0.244,1.12-0.197c-0.111-0.148-0.222-0.297-0.333-0.445c0.31,0.143,0.721,0.348,1.057,0.424
				c0.093,0.006,0.846,0.049,0.29,0.021c0.191,0.072,0.375,0.158,0.553,0.258c0.043-0.273,1.381,0.113,1.107,0.34
				c0.351-0.396,1.213-0.049,1.63,0.041c-0.044-0.035,1.931,0.473,1.605,0.291c0.091-0.398,3.35-0.256,3.001,0.287
				c0.124-0.145,0.191-0.188,0.375-0.244c0.168,0.211,0.72,0.262,0.337-0.41c0.237-0.121,1.287,0.072,1.284,0.07
				c0.204-0.025,1.916,0.275,1.961,0.168c0.189,0.117,0.612,0.111,0.745,0.178c-0.249-0.484,0.456-0.1,0.387,0.248
				c0.144-0.27,0.848,0.01,1.131-0.178c-0.314,0.154-0.393,0.098-0.236-0.17c0.184-0.01,0.368-0.02,0.551-0.029
				c0.138-0.086,1.211-0.223,1.162,0.246c0.12-0.238,1.397-0.211,1.44,0.166c0.052-0.201,1.222-0.277,1.161,0.061
				c3.806,0.314,8.242,0.621,12.074,0.262c0.317,0.027,0.363-0.043,0.139-0.211c0.421,0.152,1.384,0.166,1.708,0.393
				c-0.066-0.086-0.13-0.174-0.192-0.264c0.075,0.01,0.698-0.027,0.351,0.111c1.688-0.441,3.427,0.285,5.118-0.123
				c-0.043,0.053,2.588,0.309,2.649,0.156c0.119-0.053,0.227-0.123,0.324-0.209c-0.192,0.15-0.098,0.203,0.282,0.158
				c2.51,0.361,5.052,0.105,7.572,0.313c-0.245-0.16-0.184-0.199,0.182-0.115c1.465,0.018,2.943-0.102,4.273,0.037
				c2.155-0.131,4.283,0.039,6.438-0.033c1.046-0.033,2.445,0.244,3.435-0.182c-0.034,0.014,2.611-1.809,1.551-1.229
				C-82.381,221.627-82.254,221.658-81.792,221.42C-82.162,221.035-82.653,221.891-81.792,221.42z M-147.269,220.951
				C-147.267,220.955-147.166,221.125-147.269,220.951L-147.269,220.951z M-153.002,219.131
				C-153.201,219.113-152.647,219.289-153.002,219.131C-153.065,219.125-152.962,219.148-153.002,219.131z"/>
		</g>
	</g>
	<g enable-background="new    ">
		<path fill="#777777" d="M-31.701,200.363h-10.965c-0.693,0-1.198-0.564-1.198-1.195v-1.828c0-0.629,0.504-1.197,1.198-1.197
			h26.719c0.693,0,1.197,0.568,1.197,1.197v1.828c0,0.631-0.504,1.195-1.197,1.195h-10.965v38.697c0,0.627-0.567,1.195-1.197,1.195
			h-2.395c-0.63,0-1.197-0.568-1.197-1.195V200.363z"/>
		<path fill="#777777" d="M17.146,195.514c12.604,0,22.686,10.145,22.686,22.748s-10.082,22.623-22.686,22.623
			s-22.624-10.02-22.624-22.623S4.542,195.514,17.146,195.514z M17.146,236.475c10.02,0,18.275-8.193,18.275-18.213
			s-8.256-18.338-18.275-18.338c-10.02,0-18.212,8.318-18.212,18.338S7.125,236.475,17.146,236.475z"/>
		<path fill="#777777" d="M76.08,197.34c0-0.629,0.504-1.197,1.197-1.197h2.458c0.63,0,1.197,0.568,1.197,1.197v38.695h18.148
			c0.693,0,1.197,0.564,1.197,1.195v1.83c0,0.627-0.504,1.195-1.197,1.195H77.277c-0.693,0-1.197-0.568-1.197-1.195V197.34z"/>
		<path fill="#777777" d="M132.11,195.514c12.604,0,22.686,10.145,22.686,22.748s-10.082,22.623-22.686,22.623
			s-22.622-10.02-22.622-22.623S119.507,195.514,132.11,195.514z M132.11,236.475c10.018,0,18.274-8.193,18.274-18.213
			s-8.257-18.338-18.274-18.338c-10.019,0-18.214,8.318-18.214,18.338S122.092,236.475,132.11,236.475z"/>
		<path fill="#777777" d="M164.51,197.781c-0.375-0.816,0.129-1.639,1.073-1.639h2.521c0.568,0,0.943,0.379,1.072,0.691
			l15.69,35.291h0.252l15.689-35.291c0.129-0.313,0.569-0.691,1.073-0.691h2.521c0.943,0,1.448,0.822,1.072,1.639l-19.157,42.41
			c-0.19,0.381-0.568,0.693-1.072,0.693h-0.63c-0.443,0-0.883-0.313-1.07-0.693L164.51,197.781z"/>
		<path fill="#777777" d="M218.652,197.34c0-0.629,0.504-1.197,1.195-1.197h24.832c0.692,0,1.196,0.568,1.196,1.197v1.828
			c0,0.631-0.504,1.195-1.196,1.195h-21.174v15.377h18.085c0.63,0,1.195,0.568,1.195,1.199v1.826c0,0.693-0.565,1.197-1.195,1.197
			h-18.085v16.072h21.174c0.692,0,1.196,0.564,1.196,1.195v1.83c0,0.627-0.504,1.195-1.196,1.195h-24.832
			c-0.691,0-1.195-0.568-1.195-1.195V197.34z"/>
	</g>
	<g>
		<g>
			<path fill="#777777" d="M341.69,222.041C341.726,222.135,341.74,222.172,341.69,222.041L341.69,222.041z M310.542,222.525
				C310.53,222.629,310.545,222.5,310.542,222.525L310.542,222.525z M310.574,222.531
				C310.674,222.494,310.674,222.494,310.574,222.531c0.031,0.004,0.215,0.035,0.064,0.074c0.078-0.059,0.32-0.006,0.346-0.135
				C310.842,222.445,310.704,222.465,310.574,222.531C310.633,222.541,310.704,222.465,310.574,222.531z M356.619,220.111
				C356.606,220.082,356.561,219.986,356.619,220.111L356.619,220.111z M285.818,221.42c0.462,0.238,0.59,0.207,0.383-0.094
				c-1.061-0.58,1.585,1.242,1.551,1.229c0.99,0.426,2.389,0.148,3.436,0.182c2.154,0.072,4.282-0.098,6.438,0.033
				c1.33-0.139,2.809-0.02,4.273-0.037c0.365-0.084,0.427-0.045,0.182,0.115c2.521-0.207,5.063,0.049,7.572-0.313
				c0.38,0.045,0.475-0.008,0.281-0.158c0.098,0.086,0.205,0.156,0.324,0.209c0.061,0.152,2.693-0.104,2.649-0.156
				c1.69,0.408,3.431-0.318,5.118,0.123c-0.348-0.139,0.275-0.102,0.35-0.111c-0.061,0.09-0.125,0.178-0.191,0.264
				c0.324-0.227,1.287-0.24,1.709-0.393c-0.225,0.168-0.179,0.238,0.139,0.211c3.832,0.359,8.268,0.053,12.073-0.262
				c-0.062-0.338,1.108-0.262,1.161-0.061c0.043-0.377,1.32-0.404,1.439-0.166c-0.049-0.469,1.024-0.332,1.162-0.246
				c0.184,0.01,0.368,0.02,0.552,0.029c0.157,0.268,0.078,0.324-0.235,0.17c0.283,0.188,0.987-0.092,1.131,0.178
				c-0.069-0.348,0.636-0.732,0.387-0.248c0.133-0.066,0.556-0.061,0.744-0.178c0.046,0.107,1.758-0.193,1.961-0.168
				c-0.002,0.002,1.047-0.191,1.284-0.07c-0.383,0.672,0.169,0.621,0.337,0.41c0.184,0.057,0.251,0.1,0.375,0.244
				c-0.349-0.543,2.91-0.686,3.002-0.287c-0.326,0.182,1.648-0.326,1.604-0.291c0.417-0.09,1.278-0.438,1.63-0.041
				c-0.273-0.227,1.064-0.613,1.107-0.34c0.178-0.1,0.361-0.186,0.553-0.258c-0.557,0.027,0.197-0.016,0.29-0.021
				c0.336-0.076,0.747-0.281,1.057-0.424c-0.11,0.148-0.222,0.297-0.333,0.445c0.353-0.047,1.271-0.418,1.12,0.197
				c0.325,0.061,0.671-0.359,1.003-0.209c-0.029,0.012-0.148,0.162,0.006,0.047c-0.027,0.039,0.934-0.098,1.088-0.225
				c0.068-0.287,2.109-0.68,2.119-0.625c0.051-0.025,0.431-0.271,0.203-0.211c0.151-0.191,0.504-0.586,0.773-0.586
				c-0.221-0.172-0.445-0.012-0.672-0.082c-0.151-0.09-0.295-0.191-0.43-0.305c-0.149,0.211-1.09,0.246-0.666-0.063
				c-0.336,0.277-0.875,0.252-1.282,0.227c-0.628-0.15-1.269,0.02-1.902-0.041c0.097-0.063,0.19-0.127,0.284-0.193
				c-1.604-0.635-3.957-0.059-5.63,0.006c-2.216,0.086-4.405,0.063-6.62-0.043c-1.973-0.094-3.91,0.074-5.879,0.057
				c-1.295-0.012-2.721-0.611-3.99-0.066c-1.115,0.088-12.396,0.119-12.396-0.186c-5.777,1.131-12.26-0.496-18.158-0.076
				C294.954,218.943,289.828,217.242,285.818,221.42C286.68,221.891,286.188,221.035,285.818,221.42z M351.295,220.951
				C351.191,221.125,351.293,220.955,351.295,220.951L351.295,220.951z M357.028,219.131
				C356.674,219.289,357.228,219.113,357.028,219.131C356.988,219.148,357.092,219.125,357.028,219.131z"/>
		</g>
	</g>
	<g>
		<path fill="#F8636F" d="M161.656-101.549c-0.322,1.837,0.105-0.531,0.105,1.024C161.932-101.018,161.82-101.327,161.656-101.549z"
			/>
		<path fill="#F8636F" d="M93.966-28.27c0.286,0.452-0.39-1.984-0.07-0.642C93.919-28.698,93.943-28.484,93.966-28.27z"/>
		<path fill="#F8636F" d="M37.262-64.127C37.297-63.861,37.283-64.065,37.262-64.127C37.268-64.082,37.274-64.092,37.262-64.127z"/>
		<path fill="#F8636F" d="M161.017-92.233c-0.467-0.923-0.244-2.186-0.586-0.124c-0.481-0.497-0.109-3.304,0.594-1.858
			c-0.728-0.613-0.282-2.389-0.447-3.208c0.907,2.456-1.03,5.118-0.891,7.603c0.961-1.732,0.701,4.411-0.745,2.798
			c1.589,1.284-1.61,10.324-1.841,11.851c-0.825,5.484-1.622,8.447-2.834,13.9c0.285-1.259-1.117,3.317-1.345,3.923
			c1.84-1.039-0.768,1.947-0.897,2.291c-1.337-1.895,2.832-4.935,1.159-6.516c0.471,0.447-2.378,7.928-2.237,6.671
			c-0.333,0.857-0.632,1.726-0.897,2.606c-0.334,0.014,0.547-2.146,0.437-2.383c-1.231,0.652-1.5,2.64-1.809,3.835
			c1.075,0.037,1.823-0.91,0.312,1.641c0.042-0.58,0.277-0.745,0.706-0.496c0.157,0.884-1.166,2.001-1.744,2.475
			c2.906-3.94-0.486-0.404-0.164-1.864c-0.728,1.383-0.973,2.771-1.649,4.347c0.064-0.15-0.779,2.952,0.178,2.343
			c-1.235,4.204-0.532-0.178-1.775,1.7c0.688-2.22-2.633,1.459-2.996,1.971c0.083-0.196-2.841,2.678-1.049,1.008
			c-0.533,1.135-1.163,2.215-1.888,3.239c2.038-2.536-3.872,3.057-4.004,3.082c0.646-0.224,1.247-0.536,1.802-0.934
			c-0.592,2.989-5.5,3.902-6.516,4.398c0.454,0.009-0.135,2.097-0.929,1.673c0.087-0.358,0.063-0.708-0.073-1.049
			c-0.477,0.932-1.709,1.732-2.453,2.401c-1.692,1.521,1.808-1.154-1.446,1.254c-2.679,1.981-0.653-0.335-0.321-0.333
			c-1.527,0.657-2.266,2.441-3.323,3.485c2.479-1.162-0.449-0.229-0.476-0.629c0.411-0.525,0.833-1.041,1.267-1.547
			c-0.006-0.298-2.753,0.165-3.113,0.636c1.552,0.405-2.208,1.036-2.849,1.107c-3.522,0.393-7.492,1.637-11.015,1.115
			c-4.735-0.702-5.407-0.378-6.361-3.79c-0.464-1.66-0.015-3.362-0.311-5.039c-0.038-0.187-0.56-4.672-0.899-1.928
			c0.049-2.687,0.646-5.41,0.91-8.083c0.093-0.94,0.324-7.623,0.022-4.589c-1.749-4.308,6.355-14.757,3.42-18.248
			c0.689,0.604,2.542-5.096,2.921-5.914c0.939-2.028,4.155-5.087,4.155-7.343c1.513-3.576,7.69-10.745,11.433-12.025
			c6.972-2.385,13.481-6.537,20.478-9.069c5.559-2.012,15.7-2.809,19.6-7.789c-14.526,4.353-30.011,6.964-42.517,16.132
			c-5.355,3.927-10.144,8.696-13.756,14.288c-2.037,3.153-4.631,10.703-5.25,11.846c-2.301,6.753-2.538,13.908-3.784,20.878
			c0-2.019-1.892-5.181-3.409-6.463c-1.454-1.229-0.891-2.657-1.882-4.196c-1.026-1.592-2.289-3.026-3.537-4.444
			c-0.181-0.206-3.493-3.8-1.662-2.644c-0.732-0.622-1.426-1.285-2.081-1.987c0.349,0.192,0.645,0.446,0.886,0.762
			c-0.623-1.155-4.628-6.491-3.169-2.49c-1.373-1.004-1.676-1.361-0.91-1.071c-3.239-2.905-6.828-6.203-10.36-8.059
			c2.125,0.821,0.438,0.474-0.086,0.054c-1.925-1.542-3.711-2.46-6.083-3.206c-1.685-0.529-7.445-3.981-9.132-3.08
			c2.708-0.356-3.212-1.197-3.815-1.036c-1.204,0.321-5.1-1.109-4.114-1.014c-5.587-1.427-9.276-0.125-8.569,5.778
			c0.235,1.965-1.218,1.261-0.637,3.467c0.33,1.253,0.325,4.113,0.304,3.528c-0.08,1.132,0.408,2.429,0.492,3.562
			c-0.629-3.402,0.386,3.353,0.334,3.149c0.572,2.282,1.502,4.468,2.544,6.57c0.881,1.775,4.898,9.028,4.933,9.038
			c1.14,1.344,2.317,2.687,3.77,3.708c-1.729-0.712,1.451,1.857,1.891,2.046c-0.281-0.161-0.474-0.39-0.581-0.689
			c1.483-0.394,2.453,2.438,3.495,3.01c1.518,2.188,3.002,3.339,6.028,4.049c-0.066-0.032,0.198,0.786-0.486,0.516
			c2.214,1.436,4.9,1.754,7.222,2.954c-0.037-0.1-0.88-0.336-0.979-0.47c0.59,0.799,0.939,1.63,0.164,1.464
			c3.356,1.083,6.361,2.926,9.526,4.198c3.164,1.271,7.144,0.787,10.124,2.24c1.608,0.784,6.153-0.131,8.902,1.278
			c0.194,0.722,2.479,3.116,4.39,3.324c0.323,0.036,5.569-0.486,4.218,0.895c8.375,0.502,16.927-0.888,24.281-5.078
			c6.64-3.784,10.891-8.997,16.486-13.85c2.326-2.018,4.147-5.234,5.327-8.046c0.417-0.995,0.83-2.002,1.17-3.026
			c0.754-2.273,0.702-0.676,1.068-0.647c1.672,0.134,5.582-15.023,5.933-16.491c0.991-4.146,1.561-8.369,2.342-12.556
			c0.64-3.423-0.497-7.475,0.473-10.648c0.045,0.917,0.256,1.794,0.633,2.632c0.489-2.631,0.93-6.959,0.425-9.71
			C161.339-90.743,161.03-93.058,161.017-92.233C160.471-93.313,161.022-92.586,161.017-92.233z M37.839-61.867
			c0.038,0.103,0.056,0.18,0.082,0.272C37.895-61.684,37.872-61.769,37.839-61.867z M83.543-25.128
			c-0.368-0.024-0.318-0.135,0.15-0.333C84.062-25.611,83.523-25.089,83.543-25.128z M93.966-23.245
			c-1.52-0.16-2.911,0.285-2.685-1.114c-0.809,0.772-0.56,0.665-1.612,0.49c0.407-0.301,0.812-0.605,1.213-0.913
			c-1.275,0.16-1.299,0.424-0.1-0.736c-0.475-0.184-0.963,1.124-1.551,1.143c-0.108-0.092,0.942-1.063,1.064-1.215
			c-0.553,0.335-1.671-0.257-1.881,1.2c3.213-3.269,1.053-1.726,1.04-1.445c-0.713,0.429-0.695,0.268,0.057-0.483
			c-1.958,1.448,1.012-1.036-1.12,0.282c0.141-0.127,0.13-0.172-0.031-0.132c-0.187-0.317,1.326-1.584-0.603-0.072
			c0.235-0.308,0.435-0.636,0.6-0.986c0.191,0.074-1.5,0.972-0.688,0.436c-0.054-0.083-1.399,1.159-1.604,1.272
			c0.412-0.79,1-1.417,1.762-1.881c-0.306,0.083-0.591,0.21-0.856,0.384c2.431-0.247-1.777-1.117-1.05-1.627
			c-0.42,0.295-0.208,0.054-1.107,0.193c1.144-1.1-0.454-1.226-1.065-0.927c1.121-1.022-0.481-0.91-0.515-0.9
			c0.776-0.974-0.402-0.049,0.229-0.531c-0.223,0.234-0.493,0.386-0.812,0.456c0.314-0.332,0.361-0.373,0.14-0.123
			c0.726-0.835,0.554-1.053-0.515-0.653c0.738-0.28,0.202-1.052-0.948-0.831c0.376-0.179,0.477-0.406,0.3-0.681
			c-0.615,0.256,0.361-0.838-1.298-0.697c0.818-0.675,0.754-0.805-0.193-0.39c1.291-0.881-0.687,0.34,0.568-0.801
			c-0.226-0.78-2.444-0.926-2.717-1.011c0.622-0.252,0.706-0.461,0.252-0.627c-0.378,0.112-0.847,0.658-1.651,0.105
			c0.413-0.207,0.759-0.489,1.041-0.845c-0.101-0.082-3.838-3.211-2.412-4.267c-3.009,1.03-1.769-6.362-5.305-5.088
			c0.931,0.742,0.644,8.188,2.832,7.11c-2.575,2.017,4.646,6.453,4.93,6.39c-0.972,0.595,3.893,7.33,5.546,7.548
			c-13.453-3.394-26.368-10.258-35.04-21.317c-4.562-5.818-7.264-12.08-6.941-19.397c0.157-3.554-3.127-13.421,4.633-9.756
			c-1.281,0.55,3.623,1.247,3.992,1.329c3.292,0.737,6.21,1.337,9.383,2.579c7.268,2.844,13.066,6.938,18.539,12.526
			c5.316,5.427,9.655,11.843,12.585,18.858c1.364,3.266,2.987,6.524,3.503,10.065C93.979-29.613,93.472-23.399,93.966-23.245
			C92.833-23.364,93.798-23.297,93.966-23.245C92.937-23.354,93.802-23.296,93.966-23.245z M80.132-34.179
			c0.006,0.003,0.023,0.003,0.035,0.003C80.144-34.17,80.138-34.176,80.132-34.179z"/>
		<path fill="#F8636F" d="M51.7-74.074c-0.126-0.009-0.252-0.06-0.381-0.06C51.457-74.088,51.571-74.08,51.7-74.074z"/>
		<path fill="#F8636F" d="M155.325-69.242c-0.249,0.689-0.79,1.268-0.874,1.546C154.357-68.176,155.328-69.22,155.325-69.242
			C155.076-68.553,155.369-68.95,155.325-69.242z"/>
		<path fill="#F8636F" d="M155.642-68.941c0.023-0.006,0.053-0.018,0.076-0.028C155.706-68.984,155.671-68.956,155.642-68.941z"/>
		<path fill="#F8636F" d="M155.325-69.958c-0.035,0.347-0.029,0.56,0,0.716C155.396-69.442,155.431-69.668,155.325-69.958z"/>
		<path fill="#F8636F" d="M147.188-47.133c-0.041,0.089-0.091,0.204-0.152,0.365C147.13-46.92,147.147-47.014,147.188-47.133z"/>
		<path fill="#F8636F" d="M45.252-44.271c-0.053-0.063-0.105-0.115-0.158-0.176C45.012-44.397,45.111-44.34,45.252-44.271z"/>
		<path fill="#F8636F" d="M160.964-98.148c0.272,0.882,0.47-0.192,0.733-0.507C161.489-98.781,161.198-98.239,160.964-98.148z"/>
		<path fill="#F8636F" d="M155.7-69.786c0.367-0.464,0.023-0.477,0.1-0.963c-0.133,0.43-0.266,0.86-0.398,1.29
			C155.417-69.517,155.819-70.569,155.7-69.786C156.067-70.25,155.753-70.133,155.7-69.786z"/>
		<path fill="#F8636F" d="M154.281-64.473c0.033-0.435,0.066-0.871,0.1-1.306c-0.384,0.842-0.234,2.603-0.234,2.603
			S154.344-65.134,154.281-64.473C154.314-64.908,154.24-64.04,154.281-64.473z"/>
		<path fill="#F8636F" d="M151.181-57.422c-0.276,0.724-0.24,0.91,0.135,0.429C151.269-57.176,151.31-57.437,151.181-57.422z"/>
		<path fill="#F8636F" d="M151.005-55.426c0.211-0.214,0.422-0.43,0.609-0.954C151.339-56.681,151.181-55.381,151.005-55.426z"/>
		<path fill="#F8636F" d="M144.879-43.598c-0.129-0.39-0.458,0.945-0.792,1.153C144.465-42.577,144.709-43.301,144.879-43.598z"/>
		<path fill="#F8636F" d="M140.978-37.583c0.116-0.139,0.232-0.278,0.349-0.417C140.602-38.055,140.899-37.529,140.978-37.583
			C141.094-37.722,140.641-37.349,140.978-37.583z"/>
		<path fill="#F8636F" d="M57.079-76.823c-0.256-0.048-0.512-0.096-0.768-0.144C56.645-76.645,56.842-76.839,57.079-76.823z"/>
		<path fill="#F8636F" d="M47.817-40.365c-0.062-0.114,0.354-0.154-0.249-0.664C48.186-40.336,47.345-40.892,47.817-40.365z"/>
		<path fill="#F8636F" d="M72.936-24.596C72.774-25.282,72.886-24.81,72.936-24.596L72.936-24.596z"/>
		<path fill="#F8636F" d="M80.36-34.144C80.348-34.151,80.431-34.101,80.36-34.144L80.36-34.144z"/>
		<path fill="#F8636F" d="M79.51-35.479c0.006,0,0.018,0,0.023,0C79.61-35.527,79.575-35.51,79.51-35.479z"/>
		<path fill="#F8636F" d="M78.701-35.611C78.709-35.615,78.74-35.629,78.701-35.611L78.701-35.611z"/>
		<path fill="#F8636F" d="M82.389-25.827C82.44-25.866,82.422-25.932,82.389-25.827C82.4-25.836,82.389-25.827,82.389-25.827z"/>
		<path fill="#F8636F" d="M89.259-25.931C89.621-26.48,89.253-25.956,89.259-25.931C89.259-25.931,89.253-25.956,89.259-25.931z"/>
		<path fill="#F8636F" d="M81.908-32.231C82.224-32.539,81.984-32.306,81.908-32.231L81.908-32.231z"/>
		<path fill="#F8636F" d="M76.884-36.914C77.326-37.19,77.328-37.191,76.884-36.914L76.884-36.914z"/>
		<path fill="#F8636F" d="M135.048-71.526c-0.296-1.655,1.53-2.677-0.211-4.091c-0.41,1.728-9.629,10.617-7.65,12.015
			c-2.915-0.442-5.501,7.097-6.313,9.21c-1.41,3.664-2.772,5.135-5.316,8.303c-1.29,1.606-11.726,17.638-11.173,17.787
			c0.041-0.198-2.335,2.191-2.602,2.663c-1.135,2.011-0.412,2.596-1.438,1.746c0.187,1.153-0.044,1.48-0.691,0.982
			c0.111,0.434,0.352,0.779,0.721,1.036c-0.341,0.003-0.599-0.148-0.775-0.454c0.875,2.272,0.565-1.323,2.011,0.132
			c-0.425-2.3,1.937,0.54,1.389-2.254c0.384-0.458,1.302,1.141,1.788,0.835c-0.372-0.363-0.67-0.777-0.897-1.243
			c-0.329,1.405,1.594-2.336,0.258-1.509c0.188,0.121,1.837,1.782,1.095,1.829c0.173-0.173,0.692-1.324,0.082-1.268
			c0.622-0.082,1.078,0.167,1.368,0.745c0.634-0.515-1.05-1.164-0.897-1.879c0.504,0.238,0.917,0.584,1.237,1.041
			c0.309-0.02-1.925-0.831,0.287-0.853c-0.454-0.449-0.839-0.95-1.155-1.503c2.522,2.52,2.147,0.523,1.478,0.177
			c0.399-0.118,0.659,0.035,0.779,0.457c-0.121-0.403-0.322-0.761-0.602-1.075c0.323,0.24,0.678,0.416,1.065,0.526
			c-0.089-0.1-0.348-0.798-0.413-0.9c-0.018-0.542,1.11-0.408,1.042-0.354c-0.071-0.363-0.234-0.685-0.487-0.965
			c1.641,0.686,0.839-0.695,0.506-0.901c1.121,0.864-0.831-0.954-0.946-1.289c0.7-0.356,1.515,1.36,2.063,1.546
			c-0.113-0.357-0.195-0.722-0.246-1.093c0.267,0.427,3.128-2.916,3.26-3.89c-0.429,0.097-0.628-0.067-0.599-0.492
			c1.161,0.797,2.563-1.842,1.518-2.342c1.107,0.774,1.53-0.958,1.369-1.517c0.763,0.249,0.354-0.422,0.719-0.111
			c-0.516-0.125-0.692-0.401-0.53-0.828c0.635-0.078,0.35,0.077,1.202,0.063c-0.353-1.526,1.311-1.611,1.198-3.433
			c0.107,0.568,2.284-2.636,2.813-2.532c0.213,0.229,1.904-4.891,2.11-5.708c0.296,0.104,0.594,0.115,0.895,0.035
			c-0.039-0.47-0.238-0.873-0.598-1.208c1.333,0.752-0.005-0.671,0.24-1.249c1.959,0.917,1.227-1.286,2.647-2.68
			c0.428-0.419,2.446-4.773,3.114-3.868C128.726-62.532,135.232-73.229,135.048-71.526C134.741-73.24,135.036-71.418,135.048-71.526
			z M121.677-48.55c0,0.012,0,0.029,0,0.051C121.665-48.53,121.677-48.539,121.677-48.55z"/>
		<path fill="#F8636F" d="M121.612-48.137C121.643-48.197,121.6-48.226,121.612-48.137
			C121.618-48.148,121.609-48.157,121.612-48.137z"/>
		<path fill="#F8636F" d="M123.479-50.766c0,0.013,0,0.025,0,0.04C123.553-50.678,123.523-50.715,123.479-50.766z"/>
		<path fill="#F8636F" d="M123.584-52.089C123.65-51.981,123.644-52.047,123.584-52.089
			C123.596-52.07,123.623-52.062,123.584-52.089z"/>
		<path fill="#F8636F" d="M123.584-52.089c-0.02-0.032-0.008-0.069-0.043-0.104C123.405-52.176,123.512-52.133,123.584-52.089z"/>
		<path fill="#F8636F" d="M109.923-38.303C109.939-38.263,110.173-38.372,109.923-38.303
			C109.929-38.289,109.923-38.303,109.923-38.303z"/>
		<path fill="#F8636F" d="M104.606-24.668l0.07,0.576C104.741-24.221,104.764-24.519,104.606-24.668z"/>
		<path fill="#F8636F" d="M107.575-26.752c0.22,0.231,0.006-0.212,0.17-0.152C107.525-27.013,107.593-26.805,107.575-26.752z"/>
		<path fill="#F8636F" d="M107.982-27.804C108.534-27.578,108.03-27.845,107.982-27.804
			C107.982-27.804,108.012-27.829,107.982-27.804z"/>
		<path fill="#F8636F" d="M119.026-43.958C118.938-44.098,118.829-44.27,119.026-43.958L119.026-43.958z"/>
		<path fill="#F8636F" d="M123.893-51.21c0.053-0.132,0.211,0.151,0.252,0.051C124.112-51.162,123.849-51.38,123.893-51.21z"/>
		<path fill="#F8636F" d="M125.563-55.673C125.05-55.95,125.255-55.839,125.563-55.673L125.563-55.673z"/>
	</g>
</g>
<g id="food">
	<path fill="#F6626E" d="M-198.441,28.58c0-1.668,1.334-3.169,3.169-3.169h69.059c1.835,0,3.169,1.501,3.169,3.169v18.182
		c0,1.668-1.334,3.169-3.169,3.169h-46.206v24.021h38.033c1.668,0,3.169,1.501,3.169,3.169v18.183c0,1.668-1.501,3.169-3.169,3.169
		h-38.033v40.535c0,1.668-1.501,3.169-3.169,3.169h-19.683c-1.835,0-3.169-1.501-3.169-3.169V28.58z"/>
	<path fill="#F6626E" d="M-3.106,23.742c33.362,0,60.051,26.856,60.051,60.218c0,33.362-26.689,59.885-60.051,59.885
		S-62.99,117.322-62.99,83.96C-62.99,50.599-36.468,23.742-3.106,23.742z M-3.106,117.155c18.349,0,33.362-15.013,33.362-33.195
		c0-18.349-15.013-33.528-33.362-33.528c-18.182,0-33.195,15.18-33.195,33.528C-36.301,102.143-21.288,117.155-3.106,117.155z"/>
	<path fill="#F6626E" d="M178.552,23.742c33.362,0,60.052,26.856,60.052,60.218c0,33.362-26.689,59.885-60.052,59.885
		c-33.361,0-59.885-26.522-59.885-59.885C118.667,50.599,145.19,23.742,178.552,23.742z M178.552,117.155
		c18.349,0,33.362-15.013,33.362-33.195c0-18.349-15.014-33.528-33.362-33.528c-18.182,0-33.195,15.18-33.195,33.528
		C145.356,102.143,160.37,117.155,178.552,117.155z"/>
	<path fill="#F6626E" d="M308.833,28.58c0-1.668,1.334-3.169,3.003-3.169h40.701c32.194,0,58.55,26.189,58.55,58.217
		c0,32.36-26.355,58.55-58.55,58.55h-40.701c-1.669,0-3.003-1.501-3.003-3.169V28.58z M350.869,117.489
		c18.849,0,32.527-14.847,32.527-33.862c0-18.85-13.679-33.696-32.527-33.696h-16.014v67.558H350.869z"/>
</g>
<g id="bottom_texture">
	<g opacity="0.3">
		<path fill="#FFFFFF" d="M-182.289,31.73c0.167,0.609,0.386,1.219,0.604,1.906c-0.62,0.432-1.137,0.794-1.918,1.339
			c2.539,2.381,4.918,0.899,7.411,0.652c-0.37-1.014-0.824-1.771-0.885-2.558c-0.069-0.863,0.71-1.662,0.421-2.66h-5.629
			C-182.405,30.796-182.414,31.254-182.289,31.73z"/>
		<path fill="#FFFFFF" d="M-183.949,46.122c0.219-0.602-0.292-1.021-0.804-1.226c-0.7-0.284-1.626-0.837-2.135-0.589
			c-1.612,0.758-3.563-0.254-4.986,1.085c-0.131,0.127-0.151,0.368-0.222,0.552c0.055,0.099,0.089,0.248,0.17,0.276
			c2.223,1.013,4.599,1.106,6.976,1.02C-184.592,47.228-184.115,46.574-183.949,46.122z"/>
		<path fill="#FFFFFF" d="M-181.063,97.981c-1.31-0.1-2.627-0.149-3.94-0.106c-0.342,0.014-0.861,0.374-0.967,0.694
			c-0.218,0.645,0.372,1.141,0.864,1.119c2.162-0.092,4.404,1.942,6.526-0.299c0.219-0.227,0.685-0.214,1.16-0.202v-0.715v-0.854
			C-178.766,98.16-179,98.127-181.063,97.981z"/>
		<path fill="#FFFFFF" d="M-176.792,84.107c1.433,0.545,2.932,1.148,4.436,0.574c1.598-0.609,3.142-0.802,4.821-0.128
			c0.633-1.34-0.005-1.771-0.662-1.729c-2.526,0.143-5.02,0.009-7.514-0.383c-0.351-0.049-0.791,0.306-1.148,0.539
			C-177.209,83.2-177.155,83.974-176.792,84.107z"/>
		<path fill="#FFFFFF" d="M-170.012,31.058c0.843,0.156,1.674,0.382,2.5,0.573c0.886-0.226,1.777-0.333,2.537-0.701
			c0.163-0.084,0.297-0.285,0.397-0.52h-7.388C-171.827,31.292-170.709,30.923-170.012,31.058z"/>
		<path fill="#FFFFFF" d="M-178.792,71.757c-1.601-0.269-3.228-0.489-4.843-0.461c-0.645,0.015-1.311,0.659-1.906,1.1
			c-0.334,0.248-0.023,1.246,0.404,1.389c0.301,0.1,0.638,0.212,0.937,0.162c2.023-0.305,4.042-0.651,6.273-1.02
			C-178.224,72.508-178.456,71.813-178.792,71.757z"/>
		<path fill="#FFFFFF" d="M-181.986,87.374c-0.974-0.043-1.614,0.531-1.943,1.46c0.588,0.948,1.453,0.857,2.311,0.566
			c1.684-0.552,3.329-0.85,5.082-0.142c0.672,0.263,1.504,0.198,2.262,0.185c0.36,0,0.919-0.015,0.732-0.915
			c-0.84-0.176-1.759-0.432-2.694-0.56c-0.946-0.127-1.915-0.099-2.869-0.198C-180.067,87.671-181.021,87.416-181.986,87.374z"/>
		<path fill="#FFFFFF" d="M-159.516,31.362c1.401,0.035,2.813-0.212,4.209-0.411c0.133-0.021,0.316-0.313,0.373-0.541h-5.868
			C-160.659,31.098-160.042,31.352-159.516,31.362z"/>
		<path fill="#FFFFFF" d="M-131.223,38.519c-0.696,0.234-1.384,0.631-1.277,1.735c1.468,0.964,2.704,0.072,4.457-0.37v-0.801
			C-129.449,38.336-130.294,38.202-131.223,38.519z"/>
		<path fill="#FFFFFF" d="M-192.142,82.158c-0.433,0.031-0.865,0.017-1.3-0.008v1.439C-192.798,83.371-192.383,82.9-192.142,82.158z
			"/>
		<path fill="#FFFFFF" d="M-181.088,56.777c0.843,0,1.69,0,2.659,0c-1.199-1.891-1.632-1.898-5.481,0
			C-182.592,56.777-181.841,56.777-181.088,56.777z"/>
		<path fill="#FFFFFF" d="M-180.767,115.794c0.855-0.241,1.706-0.433,2.515-0.736c0.203-0.078,0.409-0.546,0.368-0.794
			c-0.044-0.256-0.354-0.596-0.612-0.666c-1.016-0.29-1.965-0.021-2.758,0.645c-0.191,0.162-0.299,0.603-0.226,0.851
			C-181.405,115.348-181.061,115.525-180.767,115.794z"/>
		<path fill="#FFFFFF" d="M-143.19,93.473h1.379c-0.181-0.249-0.395-0.521-0.614-0.862
			C-142.726,92.977-142.988,93.235-143.19,93.473z"/>
		<path fill="#FFFFFF" d="M-137.93,78.952h-0.246C-138.09,78.955-138.005,78.961-137.93,78.952z"/>
		<path fill="#FFFFFF" d="M-158.198,89.443c0.764,0.162,1.363-0.306,1.368-1.149c-0.253-0.184-0.606-0.665-0.997-0.7
			c-0.731-0.063-1.361,0.566-1.207,1.119C-158.951,89.025-158.525,89.379-158.198,89.443z"/>
		<path fill="#FFFFFF" d="M-178.339,40.673c1.435,0.425,2.411,1.474,4.031-0.036C-176.385,40.056-176.385,40.056-178.339,40.673z"/>
		<path fill="#FFFFFF" d="M-147.256,39.688c-0.721-0.015-1.218,0.318-1.271,1.381c0.866,0.552,1.615,0.595,2.492-0.064
			C-146.317,40.382-146.406,39.694-147.256,39.688z"/>
		<path fill="#FFFFFF" d="M-128.093,44.931h0.049v-0.572c-0.113,0.047-0.223,0.094-0.338,0.14
			C-128.294,44.674-128.195,44.811-128.093,44.931z"/>
		<path fill="#FFFFFF" d="M-177.072,93.085c-0.54-0.716-1.153-0.283-1.73-0.035c-0.269,0.12-0.502,0.318-0.849,0.537
			c0.335,0.256,0.553,0.519,0.828,0.617c0.533,0.205,1.015,0.121,1.405-0.203v-0.528h0.384
			C-177.008,93.328-177.013,93.167-177.072,93.085z"/>
		<path fill="#FFFFFF" d="M-192.704,125.494c0.13-0.057,0.172-0.318,0.323-0.645c-0.366-0.122-0.712-0.303-1.061-0.327v1.118
			C-193.207,125.664-192.93,125.587-192.704,125.494z"/>
		<path fill="#FFFFFF" d="M-189.542,71.197c-0.313,0.085-0.728,0.489-0.749,0.78c-0.021,0.274,0.409,0.58,0.76,1.019
			c0.422-0.381,0.822-0.587,0.934-0.892C-188.427,71.629-189.009,71.056-189.542,71.197z"/>
		<path fill="#FFFFFF" d="M-172.908,40.475c-0.006,0.276,0.593,0.865,0.732,0.807c0.419-0.162,0.75-0.559,1.25-0.978
			c-0.408-0.312-0.61-0.587-0.844-0.615C-172.352,39.604-172.897,39.851-172.908,40.475z"/>
		<path fill="#FFFFFF" d="M-183.331,93.646c0.175,0.212,0.328,0.46,0.547,0.623c0.057,0.042,0.475-0.234,0.458-0.298
			c-0.059-0.248-0.229-0.461-0.355-0.688C-182.978,93.446-183.155,93.546-183.331,93.646z"/>
		<path fill="#FFFFFF" d="M-180.706,135.932c0.007,0.113,0.374,0.34,0.472,0.29c0.217-0.1,0.374-0.34,0.554-0.531
			c-0.208-0.177-0.411-0.354-0.755-0.652C-180.571,135.443-180.718,135.69-180.706,135.932z"/>
		<path fill="#FFFFFF" d="M-131.17,44.52c-0.271,0.014-0.538,0.134-0.806,0.213c0.022,0.056,0.042,0.126,0.063,0.198h0.941
			C-131.052,44.712-131.114,44.52-131.17,44.52z"/>
		<path fill="#FFFFFF" d="M-168.389,88.182c-0.161-0.043-0.358,0.085-0.541,0.135c0.146,0.198,0.291,0.396,0.436,0.595
			c0.137-0.112,0.269-0.22,0.406-0.333C-168.185,88.438-168.263,88.21-168.389,88.182z"/>
		<path fill="#FFFFFF" d="M-171.295,87.742c-0.202,0-0.507,0.305-0.57,0.539c-0.043,0.156,0.246,0.403,0.423,0.673
			c0.328-0.29,0.548-0.496,0.767-0.694C-170.881,88.075-171.088,87.742-171.295,87.742z"/>
		<path fill="#FFFFFF" d="M-139.823,44.428c-0.168-0.021-0.358,0.142-0.539,0.227c0.072,0.094,0.142,0.184,0.213,0.277h0.568
			c0.024-0.026,0.049-0.053,0.073-0.079C-139.612,44.698-139.705,44.441-139.823,44.428z"/>
		<path fill="#FFFFFF" d="M-191.582,93.935c-0.02,0.063,0.101,0.171,0.161,0.256c0.214-0.171,0.432-0.348,0.648-0.518
			c-0.129-0.114-0.262-0.234-0.506-0.454C-191.396,93.488-191.513,93.701-191.582,93.935z"/>
		<path fill="#FFFFFF" d="M-150.963,35.351c0.085,0.036,0.17,0.071,0.255,0.107c0.083-0.058,0.167-0.113,0.252-0.163
			c-0.065-0.078-0.132-0.156-0.2-0.227C-150.758,35.16-150.861,35.259-150.963,35.351z"/>
		<path fill="#FFFFFF" d="M-165.526,35.16c0.011,0.078-0.003,0.185,0.037,0.213c0.064,0.042,0.165,0.035,0.25,0.049
			c-0.016-0.106-0.032-0.22-0.048-0.333C-165.367,35.118-165.446,35.139-165.526,35.16z"/>
		<path fill="#FFFFFF" d="M-189.759,61.412c0.012-0.042-0.147-0.127-0.223-0.198c-0.078,0.071-0.233,0.156-0.223,0.198
			c0.04,0.171,0.134,0.326,0.207,0.483C-189.913,61.738-189.81,61.583-189.759,61.412z"/>
	</g>
	<g opacity="0.3">
		<path fill="#FFFFFF" d="M-42.241,103.776c-0.338,0.064-0.616,0.461-0.984,0.767c1.954,1.168,3.647,1.558,5.39,1.424
			c1.101-0.082,2.199-0.22,3.299-0.34c-0.632-0.913-1.222-1.857-1.773-2.826C-38.294,103.078-40.272,103.409-42.241,103.776z"/>
		<path fill="#FFFFFF" d="M-39.16,98.745c0.388,0.617,0.562,1.276,0.932,1.411c0.203,0.076,0.412,0.135,0.625,0.183
			c-0.269-0.564-0.524-1.137-0.766-1.716C-38.596,98.661-38.849,98.708-39.16,98.745z"/>
		<path fill="#FFFFFF" d="M-43.004,115.582c-0.25-1.729-1.972-2.169-2.568-3.401c0.268-3.104,0.268-3.104-2.586-3.72
			c-0.11-0.028-0.222-0.035-0.321-0.078c-1.446-0.637-2.638-0.295-3.746,0.308c1.345,2.7,2.909,5.293,4.698,7.745
			c0.316,0.118,0.633,0.253,0.947,0.429C-45.313,117.566-43.824,116.893-43.004,115.582z"/>
		<path fill="#FFFFFF" d="M-36.044,118.934c-1.92,0.255-3.283-0.412-4.907-0.028c-1.428,0.334-3.022-0.214-4.567,0.123
			c0.734,0.888,1.506,1.749,2.3,2.595c1.664-0.013,3.329-0.027,4.992-0.076C-36.883,121.513-36.366,120.648-36.044,118.934z"/>
		<path fill="#FFFFFF" d="M-17.92,119.408c-0.1,0-0.247,0.035-0.296,0.113c-0.182,0.24-0.469,0.524-0.452,0.772
			c0.02,0.241,0.421,0.665,0.569,0.638c1.073-0.248,2.063-0.227,3.093,0.275c0.428,0.206,1.092,0.113,1.587-0.049
			c0.247-0.078,0.493-0.15,0.739-0.219c-1.497-0.388-2.954-0.874-4.374-1.434C-17.343,119.473-17.634,119.425-17.92,119.408z"/>
		<path fill="#FFFFFF" d="M42.403,88.988c0.691,1.354,1.381,2.693,2.079,4.068c-1.644,1.473-0.68,3.047-0.312,4.563
			c0.025,0.121,0.528,0.129,0.957,0.22c0.283-2.069,0.127-4.066,1.084-5.951c0.524-1.049,0.673-2.559-0.454-3.763
			C44.631,88.117,43.426,87.947,42.403,88.988z"/>
		<path fill="#FFFFFF" d="M-56.626,77.369c-0.167-1.411,0.42-2.537,1.134-3.55c-0.223-0.807-0.651-1.414-1.252-1.662
			c-0.431,2.027-0.762,4.086-0.968,6.173c0.014,0.004,0.027,0.015,0.041,0.018C-57.09,78.467-56.561,77.93-56.626,77.369z"/>
		<path fill="#FFFFFF" d="M-26.462,125.14c-0.058-0.51-0.678-0.929-1.235-0.765c-0.409,0.113-0.771,0.396-1.18,0.511
			c-0.393,0.113-0.932,0.29-1.209,0.113c-1.54-0.95-3.456-0.022-4.992-1.085c-0.313-0.22-1.088,0.05-1.546,0.297
			c-0.305,0.164-0.53,0.652-0.59,1.028c-0.037,0.227,0.276,0.702,0.498,0.744c1.688,0.348,3.397,0.984,5.117,0.397
			c1.176-0.404,2.285-0.717,3.249-0.191c0.447,0,0.667,0.006,0.884,0C-26.884,126.16-26.402,125.657-26.462,125.14z"/>
		<path fill="#FFFFFF" d="M-32.31,113.945c-0.481-0.341-1.477-0.079-2.196,0.092c-0.587,0.148-0.806,0.666-0.484,1.168
			c1.329,0.377,2.551,0.801,3.809,1.064c1.05,0.219,2.102,0.134,2.905-1.275C-29.921,115.326-31.105,114.796-32.31,113.945z"/>
		<path fill="#FFFFFF" d="M-50.984,105.23c0.15-0.129,0.295-0.334,0.306-0.518c0.011-0.185-0.12-0.517-0.235-0.539
			c-1.188-0.24-2.345-0.846-3.568-0.674c0.271,0.726,0.554,1.446,0.855,2.159c0.686-0.055,1.372-0.104,2.056-0.174
			C-51.365,105.464-51.142,105.364-50.984,105.23z"/>
		<path fill="#FFFFFF" d="M-22.84,129.002c-1.254,0.156-2.487,0.475-4.499,0.871c2.113,0.688,3.47,1.162,4.854,1.538
			c0.65,0.177,1.174-0.566,0.999-1.275C-21.662,129.413-22.13,128.917-22.84,129.002z"/>
		<path fill="#FFFFFF" d="M-25.35,120.223c-2.061-2.068-2.061-2.068-4.087-0.759C-28.42,121.641-27.979,121.746-25.35,120.223z"/>
		<path fill="#FFFFFF" d="M47.05,61.054c-0.155-0.344-0.307-0.688-0.469-1.029c-0.07,0.067-0.142,0.133-0.214,0.189
			C46.58,60.469,46.89,60.93,47.05,61.054z"/>
		<path fill="#FFFFFF" d="M-47.673,103.323c-0.506,0.156-0.872,0.829-1.244,1.312c-0.071,0.092,0.064,0.41,0.178,0.566
			c0.436,0.596,1.045,0.751,1.722,0.518c0.756-0.255,1.286-1.042,1.213-1.722c-0.032-0.1-0.043-0.277-0.101-0.298
			C-46.497,103.536-47.168,103.168-47.673,103.323z"/>
		<path fill="#FFFFFF" d="M26.141,115.496c1.081,1.213,1.651,1.204,4.05-0.057C29.223,114.264,28.519,114.271,26.141,115.496z"/>
		<path fill="#FFFFFF" d="M-53.845,98.598c-0.618,0.042-1.027,0.383-1.033,0.999c-0.003,0.758,0.753,1.622,1.302,1.622
			c0.606,0,1.395-0.857,1.417-1.53C-52.137,99.043-52.902,98.548-53.845,98.598z"/>
		<path fill="#FFFFFF" d="M20.469,115.546c0.23,0.071,0.616-0.36,1.041-0.645c-0.326-0.345-0.62-0.653-0.903-0.951
			c-0.444,0.35-0.895,0.688-1.354,1.018C19.616,115.228,20.052,115.421,20.469,115.546z"/>
		<path fill="#FFFFFF" d="M27.852,55.41c0.797,0.029,1.417-0.417,1.29-1.098c-0.088-0.453-0.492-0.85-0.676-1.147
			c-1.081-0.029-1.992,0.715-1.825,1.325C26.796,55.063,27.236,55.382,27.852,55.41z"/>
		<path fill="#FFFFFF" d="M35.88,119.691c-0.616,0.008-1.232,0.248-1.828,0.461c-0.117,0.043-0.209,0.375-0.177,0.553
			c0.028,0.185,0.188,0.396,0.347,0.481c0.276,0.156,0.599,0.212,0.857,0.298c0.38-0.092,0.694-0.164,1.006-0.248
			c0.433-0.113,0.922-0.297,0.708-0.814C36.663,120.089,36.192,119.685,35.88,119.691z"/>
		<path fill="#FFFFFF" d="M-29.265,43.493c0.652-0.064,1.24-0.816,1.001-1.369c-0.138-0.326-0.555-0.531-0.715-0.665
			c-1.011,0.035-1.601,0.581-1.459,1.176C-30.294,43.223-29.896,43.557-29.265,43.493z"/>
		<path fill="#FFFFFF" d="M31.538,100.349c0.48-0.146,0.805-0.499,0.742-1.008c-0.014-0.101-0.075-0.197-0.151-0.291
			C31.939,99.486,31.743,99.92,31.538,100.349z"/>
		<path fill="#FFFFFF" d="M41.258,54.2c-0.177,0.517,0.5,1.161,1.226,1.104c0.306-0.024,0.606-0.285,1.163-0.626
			c-0.072-0.117-0.146-0.233-0.219-0.349c-0.635-0.303-1.063-0.524-1.506-0.64C41.747,53.646,41.336,53.965,41.258,54.2z"/>
		<path fill="#FFFFFF" d="M-39.645,56.955c-0.183,0.531,0.476,1.077,1.312,1.077c0.354-0.006,0.704-0.283,0.95-0.39
			c0.061-0.851-0.504-1.381-1.327-1.339C-39.046,56.325-39.542,56.658-39.645,56.955z"/>
		<path fill="#FFFFFF" d="M42.355,115.115c0.029-0.042,0.059-0.083,0.088-0.125c-0.07,0.027-0.134,0.054-0.208,0.081
			C42.278,115.088,42.314,115.1,42.355,115.115z"/>
		<path fill="#FFFFFF" d="M-34.388,42.437c0.804,0.007,1.332-0.517,1.181-1.29c-0.489-0.127-1.059-0.283-1.81-0.489
			C-35.255,41.742-35.383,42.43-34.388,42.437z"/>
		<path fill="#FFFFFF" d="M-36.779,52.563c0.42-0.142,0.737-0.582,1.357-1.127c-0.624-0.318-0.962-0.645-1.279-0.623
			c-0.553,0.042-1.109,0.369-0.928,1.042C-37.542,52.166-36.974,52.634-36.779,52.563z"/>
		<path fill="#FFFFFF" d="M-23.92,37.512c0.256-0.071,0.409-0.623,0.521-0.978c0.035-0.12-0.213-0.318-0.412-0.595
			c-0.547,0.164-1.133,0.347-1.9,0.575C-25.201,37.661-24.524,37.697-23.92,37.512z"/>
		<path fill="#FFFFFF" d="M-17.543,129.965c-0.438-0.198-1.185,0.298-1.167,0.78c0.01,0.262,0.365,0.744,0.46,0.715
			c0.441-0.112,0.851-0.368,1.386-0.637C-17.182,130.405-17.313,130.072-17.543,129.965z"/>
		<path fill="#FFFFFF" d="M31.016,50.309c0.461-0.021,0.911-0.254,1.626-0.481c-0.503-0.405-0.712-0.688-0.971-0.745
			c-0.56-0.128-1.112,0.007-1.261,0.645C30.375,49.876,30.814,50.323,31.016,50.309z"/>
		<path fill="#FFFFFF" d="M-19.673,124.905c-0.272,0.044-0.702,0.575-0.659,0.823c0.111,0.68,0.765,0.631,1.247,0.495
			c0.325-0.091,0.571-0.453,1.184-0.977C-18.763,125.062-19.243,124.836-19.673,124.905z"/>
		<path fill="#FFFFFF" d="M10.225,120.216c0.027,0.29,0.483,0.537,0.838,0.893c0.294-0.34,0.576-0.517,0.643-0.758
			c0.121-0.433-0.127-0.871-0.472-0.975c-0.234,0.095-0.469,0.188-0.705,0.277C10.352,119.833,10.211,120.054,10.225,120.216z"/>
		<path fill="#FFFFFF" d="M-47.673,100.134c0.263,0.016,0.529-0.239,1.04-0.495c-0.421-0.368-0.671-0.708-1.004-0.835
			c-0.243-0.086-0.686,0.021-0.875,0.205C-48.807,99.3-48.229,100.121-47.673,100.134z"/>
		<path fill="#FFFFFF" d="M-16.934,47.347c-0.094-0.241-0.45-0.368-0.852-0.674c-0.264,0.397-0.576,0.703-0.646,1.05
			c-0.038,0.176,0.324,0.587,0.565,0.636c0.047,0.012,0.096,0.011,0.144,0.011c0.161-0.067,0.324-0.128,0.486-0.194
			C-16.982,47.965-16.821,47.625-16.934,47.347z"/>
		<path fill="#FFFFFF" d="M-31.332,129.711c-0.467-0.104-1.085,0.5-0.958,0.881c0.259,0.162,0.513,0.332,0.774,0.488
			c0.318-0.083,0.593-0.387,1.011-0.689C-30.907,130.044-31.095,129.761-31.332,129.711z"/>
		<path fill="#FFFFFF" d="M56.752,88.606c-0.012,0.159-0.022,0.318-0.036,0.477l0,0C56.729,88.924,56.74,88.766,56.752,88.606z"/>
		<path fill="#FFFFFF" d="M-20.904,135.004c-0.233,0.33-0.532,0.569-0.518,0.781c0.296,0.103,0.597,0.194,0.895,0.292
			c0.105-0.1,0.188-0.2,0.188-0.302C-20.339,135.555-20.649,135.337-20.904,135.004z"/>
		<path fill="#FFFFFF" d="M-24.51,47.142c-0.285-0.05-0.595,0.036-0.894,0.064c0.105,0.249,0.157,0.638,0.334,0.708
			c0.224,0.093,0.551-0.084,0.857-0.141C-24.34,47.481-24.399,47.163-24.51,47.142z"/>
		<path fill="#FFFFFF" d="M-3.479,130.397c0.085,0.241,0.28,0.447,0.432,0.666c0.197-0.162,0.393-0.318,0.59-0.482
			c-0.186-0.205-0.372-0.418-0.558-0.622C-3.22,130.143-3.503,130.327-3.479,130.397z"/>
		<path fill="#FFFFFF" d="M-1.358,124.863c-0.242-0.042-0.512,0.071-0.769,0.113c0.08,0.233,0.129,0.631,0.246,0.652
			c0.248,0.043,0.53-0.106,0.815-0.177C-1.185,125.189-1.249,124.886-1.358,124.863z"/>
		<path fill="#FFFFFF" d="M-22.549,119.975c0.012-0.184-0.353-0.566-0.521-0.553c-0.235,0.021-0.442,0.334-0.771,0.617
			c0.306,0.219,0.543,0.503,0.728,0.474C-22.887,120.479-22.565,120.18-22.549,119.975z"/>
		<path fill="#FFFFFF" d="M28.302,109.444c-0.131-0.049-0.344,0.107-0.521,0.179c0.145,0.212,0.29,0.432,0.439,0.645
			c0.138-0.113,0.276-0.233,0.411-0.347C28.525,109.751,28.455,109.502,28.302,109.444z"/>
		<path fill="#FFFFFF" d="M-39.417,51.187c-0.17-0.24-0.434-0.425-0.675-0.645c-0.156,0.256-0.388,0.554-0.354,0.589
			c0.217,0.213,0.491,0.375,0.744,0.551C-39.597,51.514-39.369,51.251-39.417,51.187z"/>
		<path fill="#FFFFFF" d="M-17.478,41.962c-0.137-0.121-0.272-0.234-0.409-0.361c-0.165,0.106-0.439,0.185-0.466,0.312
			c-0.033,0.149,0.151,0.347,0.24,0.531C-17.901,42.281-17.692,42.125-17.478,41.962z"/>
		<path fill="#FFFFFF" d="M46.622,83.859c0.064,0.078,0.167,0.233,0.191,0.219c0.156-0.063,0.29-0.177,0.436-0.269
			c-0.067-0.079-0.138-0.156-0.205-0.227C46.905,83.675,46.76,83.768,46.622,83.859z"/>
		<path fill="#FFFFFF" d="M-0.274,130.752c0.121,0.155,0.258,0.291,0.391,0.433c0.1-0.142,0.197-0.283,0.296-0.433
			c-0.169-0.063-0.339-0.143-0.516-0.178C-0.146,130.561-0.283,130.745-0.274,130.752z"/>
		<polygon fill="#FFFFFF" points="33.471,49.366 33.245,49.36 33.351,49.593 		"/>
	</g>
	<g opacity="0.3">
		<path fill="#FFFFFF" d="M214.203,119.848c-1.491-0.298-2.99-0.666-4.498-0.766c-3.062-0.198-6.041,0.907-9.13,0.709
			c-0.682-0.05-1.396,0.495-2.258,0.836c0.312,0.573,0.397,0.899,0.517,0.92c0.958,0.121,1.946,0.362,2.878,0.228
			c2.172-0.318,4.287-0.545,6.47,0.057c1.65,0.453,4.813-0.305,6.745-1.389C214.671,120.223,214.466,119.896,214.203,119.848z"/>
		<path fill="#FFFFFF" d="M137.987,97.804c-0.499-0.128-1.131-0.155-1.591,0.028c-1.565,0.638-3.199,0.773-4.84,0.928
			c-0.325,0.035-0.612,0.396-1.017,0.68c0.482,0.32,0.741,0.646,1.024,0.667c2.947,0.221,5.902,0.766,8.846,0.093
			c1.113-0.255,2.112-0.227,3.225,0.049c0.134,0.033,0.273,0.05,0.411,0.074c-0.265-0.557-0.517-1.121-0.755-1.691
			C141.516,98.501,139.745,98.238,137.987,97.804z"/>
		<path fill="#FFFFFF" d="M144.092,103.033c-1.729-0.581-2.927,0.637-4.237,1.034c-3.883-1.105-4.132-1.063-5.147,0.999
			c4.221,0.333,8.363,0.602,12.487,0.663c-0.716-1.027-1.383-2.091-1.997-3.188C144.783,102.836,144.373,103.124,144.092,103.033z"
			/>
		<path fill="#FFFFFF" d="M221.205,109.438c-3.087-0.411-6.189-0.851-9.676,0.233c2.059,1.736,4.021,1.58,5.963,1.275
			c1.111-0.177,2.118-0.198,3.177,0.283c1.01,0.455,1.714,0.164,1.764-0.538C222.497,109.813,221.8,109.517,221.205,109.438z"/>
		<path fill="#FFFFFF" d="M201.329,124.608c0.171,1.488,0.414,1.829,1.371,1.808c1.746-0.028,3.497-0.1,5.247-0.192
			c0.428-0.021,0.857-0.177,1.265-0.326c0.661-0.233,0.705-0.729,0.163-1.891C206.771,124.821,203.989,123.921,201.329,124.608z"/>
		<path fill="#FFFFFF" d="M128.195,94.906c0.266-0.928-0.202-1.233-0.724-1.389c-0.399-0.121-0.863-0.114-1.281-0.057
			c-0.562,0.079-1.122,0.134-1.683,0.17c0.094,0.541,0.188,1.083,0.298,1.62C125.959,95.305,127.127,95.162,128.195,94.906z"/>
		<path fill="#FFFFFF" d="M158.305,135.066c1.309,0.51,2.634,0.979,3.981,1.388c-0.029-0.265-0.111-0.546-0.147-0.82
			C160.838,135.095,159.574,134.959,158.305,135.066z"/>
		<path fill="#FFFFFF" d="M128.476,76.788c-0.582-0.086-1.061,0.261-1.156,0.886c-0.091,0.603,0.473,1.453,0.993,1.503
			c0.531,0.049,1.087,0.07,1.607-0.022c1.259-0.233,2.502-0.545,4.33-0.949C132.124,76.972,130.254,77.043,128.476,76.788z"/>
		<path fill="#FFFFFF" d="M223.416,115.963c0.452-0.632,0.895-1.271,1.318-1.92c-0.672-0.011-1.343-0.098-1.992-0.452
			C222.778,114.915,222.978,115.636,223.416,115.963z"/>
		<path fill="#FFFFFF" d="M215.627,104.854c1.312,1.608,3.002,0.857,4.55,0.701c0.347-0.041,0.772-0.687,0.886-1.125
			c0.068-0.249-0.358-0.744-0.681-0.95c-0.765-0.496-1.644-0.504-2.516-0.283C216.904,103.444,216.019,103.819,215.627,104.854z"/>
		<path fill="#FFFFFF" d="M159.634,50.507c-0.266-0.7-1.01-0.63-1.687-0.523c-0.843,0.127-1.7,0.156-2.543,0.298
			c-0.932,0.162-1.538,0.658-1.457,1.87c0.932,0.05,1.865,0.101,2.866,0.155c0.912-0.64,1.854-1.237,2.821-1.796
			C159.634,50.509,159.634,50.508,159.634,50.507z"/>
		<path fill="#FFFFFF" d="M210.576,57.153c0.254-0.042,0.513-0.652,0.574-1.027c0.034-0.206-0.305-0.595-0.558-0.694
			c-1.64-0.637-3.227-0.481-4.687,0.524c-0.149,0.099-0.18,0.383-0.263,0.582c0.064,0.084,0.113,0.198,0.202,0.253
			C207.338,57.94,208.981,57.437,210.576,57.153z"/>
		<path fill="#FFFFFF" d="M175.878,35.614c0.212,0.028,0.435,0.028,0.652,0.014c0.8-0.042,1.374-0.702,1.352-1.523
			c-0.02-0.808-0.672-1.495-1.462-1.417c-0.641,0.063-1.272,0.29-1.889,0.432C174.138,34.948,174.415,35.45,175.878,35.614z"/>
		<path fill="#FFFFFF" d="M217.711,114.03c-0.355,0.184-0.616,0.871-0.623,1.331c-0.007,0.531,0.367,0.978,1.034,1.027
			c0.801,0.057,1.521-0.084,2.048-0.723c0.191-0.233,0.254-0.567,0.368-0.821c-0.156-0.234-0.244-0.446-0.404-0.581
			C219.387,113.668,218.489,113.633,217.711,114.03z"/>
		<path fill="#FFFFFF" d="M168.034,46.809c-1.509-1.304-2.827-1.248-4.117-1.191c-0.276,0.022-0.531,0.46-0.978,0.865
			c0.971,0.5,1.763,0.902,2.51,1.284c0.728-0.269,1.468-0.508,2.215-0.732C167.784,46.962,167.899,46.892,168.034,46.809z"/>
		<path fill="#FFFFFF" d="M218.267,68.639c0.727,0.107,1.503,0.058,2.222-0.084c0.283-0.063,0.574-0.552,0.659-0.9
			c0.043-0.184-0.326-0.645-0.556-0.687c-1.038-0.164-2.103-0.383-3.13,0.156C217.321,67.888,217.492,68.526,218.267,68.639z"/>
		<path fill="#FFFFFF" d="M138.225,73.904c0.705,0.206,1.53,0.255,1.85-0.724c-0.105-0.198-0.155-0.452-0.312-0.559
			c-0.613-0.404-1.258-0.767-2.261-1.361c-0.365,0.738-0.9,1.396-0.758,1.616C137.049,73.352,137.664,73.734,138.225,73.904z"/>
		<path fill="#FFFFFF" d="M194.247,48.744c-0.042,0.004-0.085,0.011-0.127,0.016c0.367,0.165,0.735,0.326,1.097,0.502
			C195.017,48.975,194.6,48.711,194.247,48.744z"/>
		<path fill="#FFFFFF" d="M154.313,130.703c-2.853-0.899-3.09-0.969-4.177,0.374c0.251,0.15,0.509,0.289,0.762,0.436
			C152.146,131.526,153.236,131.357,154.313,130.703z"/>
		<path fill="#FFFFFF" d="M166.426,135.223c-0.6-0.085-1.304-0.262-1.655,0.525c-0.216,0.48,0.28,1.034,1.138,1.196
			c0.404,0.078,0.844,0.078,1.255,0.028c0.141-0.021,0.251-0.297,0.371-0.453C167.673,135.96,167.184,135.321,166.426,135.223z"/>
		<path fill="#FFFFFF" d="M157.316,47.184c0.159-0.099,0.224-0.354,0.333-0.532c-0.021-0.106-0.018-0.227-0.071-0.304
			c-0.424-0.574-1.647-0.886-2.32-0.518c-0.17,0.093-0.283,0.631-0.176,0.822C155.521,47.461,156.488,47.674,157.316,47.184z"/>
		<path fill="#FFFFFF" d="M147.784,119.578c-0.625,0.05-1,0.545-0.961,1.141c0.021,0.326,0.378,0.638,0.602,0.978
			c0.801-0.552,1.407-0.978,2.64-1.835C148.825,119.699,148.292,119.535,147.784,119.578z"/>
		<path fill="#FFFFFF" d="M132.917,57.607c0.46,0.191,1.276-0.354,1.155-0.709c-0.145-0.439-0.502-0.801-0.673-1.042
			c-0.723-0.113-1.36,0.426-1.233,0.907C132.252,57.097,132.599,57.472,132.917,57.607z"/>
		<path fill="#FFFFFF" d="M171.103,45.789c-0.26-0.093-0.688-0.029-0.896,0.14c-0.204,0.169-0.288,0.341-0.303,0.511
			c0.554-0.13,1.11-0.248,1.673-0.353C171.451,45.962,171.299,45.855,171.103,45.789z"/>
		<path fill="#FFFFFF" d="M134.037,82.775c-0.227,0.46,0.22,1.148,0.754,1.126c0.253-0.007,0.734-0.347,0.71-0.446
			c-0.107-0.446-0.352-0.865-0.606-1.416C134.474,82.386,134.158,82.527,134.037,82.775z"/>
		<path fill="#FFFFFF" d="M219.404,100.851c0.213-0.206,0.475-0.46,0.733-0.717c-0.287-0.254-0.542-0.595-0.875-0.734
			c-0.247-0.107-0.62-0.01-0.9,0.099c-0.141,0.056-0.279,0.318-0.29,0.496c-0.007,0.162,0.114,0.417,0.255,0.502
			C218.589,100.645,218.916,100.701,219.404,100.851z"/>
		<path fill="#FFFFFF" d="M171.024,125.416c-0.058,0.156,0.042,0.439,0.169,0.567c0.532,0.504,0.972,0.113,1.368-0.234
			c0.149-0.127,0.202-0.354,0.411-0.75c-0.212-0.171-0.291-0.27-0.383-0.298C172.005,124.495,171.216,124.836,171.024,125.416z"/>
		<path fill="#FFFFFF" d="M166.907,36.641c0.163,0.036,0.461-0.084,0.528-0.22c0.07-0.135,0-0.453-0.124-0.559
			c-0.235-0.198-0.553-0.305-0.798-0.439c-0.251,0.121-0.514,0.163-0.619,0.312c-0.071,0.1,0.011,0.439,0.128,0.525
			C166.283,36.442,166.596,36.577,166.907,36.641z"/>
		<path fill="#FFFFFF" d="M214.696,56.75c0.351,0.057,0.733-0.106,1.102-0.184c0.121-0.198,0.24-0.396,0.362-0.595
			c-0.319-0.106-0.639-0.213-0.957-0.305c-0.482-0.156-0.894-0.028-1,0.476C214.172,56.311,214.493,56.728,214.696,56.75z"/>
		<path fill="#FFFFFF" d="M195.752,130.581c0.192,0.164,0.574,0.264,0.801,0.186c0.24-0.078,0.39-0.404,0.656-0.709
			c-0.383-0.121-0.659-0.284-0.933-0.284C195.796,129.78,195.466,130.334,195.752,130.581z"/>
		<path fill="#FFFFFF" d="M212.205,62.446c0.322-0.056,0.596-0.375,0.989-0.65c-0.415-0.347-0.763-0.758-0.86-0.708
			c-0.313,0.169-0.582,0.481-0.741,0.808C211.554,61.965,212.031,62.482,212.205,62.446z"/>
		<path fill="#FFFFFF" d="M181.43,130.567c0.12,0.24,0.244,0.483,0.364,0.724c0.149-0.143,0.29-0.277,0.439-0.411
			c-0.082-0.191-0.162-0.383-0.249-0.567C181.801,130.397,181.613,130.483,181.43,130.567z"/>
		<path fill="#FFFFFF" d="M204.854,115.015c-0.056,0.163,0.091,0.383,0.152,0.58c0.191-0.077,0.383-0.155,0.57-0.233
			c-0.067-0.197-0.139-0.39-0.209-0.58C205.184,114.858,204.893,114.895,204.854,115.015z"/>
		<path fill="#FFFFFF" d="M178.138,131.035c-0.014,0.035,0.178,0.199,0.202,0.185c0.138-0.078,0.259-0.191,0.383-0.298
			c-0.121-0.114-0.24-0.227-0.361-0.348C178.279,130.73,178.181,130.873,178.138,131.035z"/>
		<path fill="#FFFFFF" d="M207.73,50.493c-0.074-0.028-0.152-0.063-0.223-0.091c-0.07,0.049-0.17,0.085-0.191,0.155
			c-0.018,0.05,0.071,0.128,0.114,0.192C207.528,50.663,207.628,50.579,207.73,50.493z"/>
		<polygon fill="#FFFFFF" points="151.461,46.029 151.251,46.022 151.348,46.271 		"/>
		<path fill="#FFFFFF" d="M211.228,105.031c0.085-0.063,0.17-0.121,0.256-0.178c-0.072-0.077-0.135-0.156-0.202-0.233
			c-0.106,0.106-0.21,0.206-0.309,0.312C211.058,104.968,211.143,104.996,211.228,105.031z"/>
		<path fill="#FFFFFF" d="M131.613,104.287c0.092,0.028,0.185,0.078,0.277,0.078c0.028,0,0.063-0.135,0.092-0.198
			c-0.092-0.028-0.181-0.077-0.277-0.077C131.678,104.09,131.646,104.216,131.613,104.287z"/>
		<path fill="#FFFFFF" d="M188.115,125.189c0.021,0.113,0.042,0.22,0.063,0.333c0.078-0.035,0.16-0.063,0.242-0.085
			c-0.015-0.071-0.012-0.171-0.05-0.198C188.302,125.197,188.199,125.203,188.115,125.189z"/>
		<path fill="#FFFFFF" d="M220.283,62.05c0.085-0.155,0.185-0.297,0.24-0.461c0.015-0.028-0.134-0.112-0.205-0.177
			c-0.092,0.149-0.191,0.298-0.255,0.461C220.053,61.895,220.205,61.986,220.283,62.05z"/>
	</g>
	<g opacity="0.3">
		<path fill="#FFFFFF" d="M349.053,122.489c-0.046,0.163-0.089,0.328-0.152,0.482c-0.396,0.942-1.122,1.75-1.778,2.734
			c1.121,0.872,2.312,0.985,3.486,1.128c2.172,0.261,4.394-0.121,6.525,0.631c0.358,0.119,0.869-0.043,1.262-0.199
			c0.894-0.354,1.765-0.793,2.647-1.205c-0.238-1.118-1.054-1.424-1.968-1.402c-0.637,0.007-1.278,0.22-1.898,0.411
			c-1.722,0.546-3.025-0.348-4.159-1.375c-0.462-0.414-0.532-0.831-0.444-1.247c-0.564,0.024-1.132,0.042-1.704,0.042H349.053z"/>
		<path fill="#FFFFFF" d="M383.117,104.67c-0.104-0.03-0.188-0.075-0.285-0.11c-0.268,0.449-0.539,0.894-0.823,1.329
			C382.398,105.581,382.771,105.189,383.117,104.67z"/>
		<path fill="#FFFFFF" d="M314.635,135.967c-0.273-0.052-0.535-0.109-0.802-0.165v1.375h0.355c0.042-0.036,0.086-0.073,0.114-0.111
			C314.514,136.768,314.533,136.328,314.635,135.967z"/>
		<path fill="#FFFFFF" d="M324.073,43.336c0.971,0.157,1.948,0.206,3.012,0.305c1.016-0.071,2.11-0.071,3.181-0.255
			c0.326-0.05,0.833-0.609,0.801-0.871c-0.064-0.483-0.367-1.113-0.759-1.325c-0.546-0.292-1.268-0.312-1.916-0.334
			c-1.53-0.057-3.057,0.086-4.438,0.781c-0.291,0.148-0.476,0.7-0.511,1.083C323.428,42.912,323.824,43.302,324.073,43.336z"/>
		<path fill="#FFFFFF" d="M353.124,30.675c0.383,0.12,0.863,0.12,1.254,0c0.246-0.074,0.491-0.14,0.736-0.2
			c-0.758-0.036-1.521-0.054-2.286-0.058C352.916,30.539,353.021,30.641,353.124,30.675z"/>
		<path fill="#FFFFFF" d="M374.456,129.533c-1.95-0.333-3.855-0.127-5.638,0.794c-0.163,0.078-0.305,0.34-0.315,0.524
			c-0.011,0.184,0.122,0.496,0.263,0.552c1.301,0.44,2.618,0.837,4.067,1.296c0.633-0.254,1.406-0.417,1.97-0.849
			c0.337-0.263,0.492-0.949,0.457-1.432C375.238,130.101,374.777,129.597,374.456,129.533z"/>
		<path fill="#FFFFFF" d="M395.028,109.602c-0.772-0.277-1.112,0.326-1.127,2.062c1.148-0.17,1.999-0.411,2.843-0.383
			c0.506,0.019,1.008,0.103,1.51,0.201c0.383-0.625,0.746-1.263,1.104-1.905C397.935,109.942,396.526,110.141,395.028,109.602z"/>
		<path fill="#FFFFFF" d="M386.353,46.475c0.825,0.752,1.721,1.298,2.915,0.901c0.594-0.197,1.263-0.272,1.843-0.606
			c-0.856-0.884-1.733-1.748-2.648-2.572c-0.008-0.001-0.016-0.003-0.023-0.004C387.178,44.074,386.735,44.684,386.353,46.475z"/>
		<path fill="#FFFFFF" d="M324.335,38.299c0.503,0.326,1.134,0.631,1.715,0.638c1.07,0.021,2.14-0.163,3.21-0.297
			c0.489-0.064,0.808-0.772,0.648-1.29c-0.221-0.702-0.72-1.105-1.421-1.127c-1.283-0.05-2.568-0.014-4.109-0.014
			C323.984,37.803,323.918,38.029,324.335,38.299z"/>
		<path fill="#FFFFFF" d="M385.297,41.575c-0.501-0.386-1.009-0.763-1.523-1.132c-0.028,0.03-0.058,0.05-0.086,0.081
			C384.208,41.171,384.752,41.458,385.297,41.575z"/>
		<path fill="#FFFFFF" d="M323.478,130.447c-0.998-0.347-2.055-0.658-3.096-0.694c-1.003-0.036-1.815,0.581-2.268,1.75
			c1.692,1.304,3.492,1.354,5.393,0.56C324.08,131.821,324.102,130.659,323.478,130.447z"/>
		<path fill="#FFFFFF" d="M325.858,47.765c0.028-0.333-0.312-0.906-0.616-1.005c-0.808-0.284-1.686-0.362-2.112-0.447
			c-1.005,0-1.58-0.099-2.089,0.036c-0.359,0.092-0.709,0.461-0.9,0.793c-0.07,0.135,0.233,0.631,0.475,0.772
			c1.374,0.837,2.892,1.078,4.449,0.716C325.398,48.552,325.833,48.084,325.858,47.765z"/>
		<path fill="#FFFFFF" d="M373.85,41.339c1.275,0.091,2.565,0.134,3.847,0.099c1.06-0.029,2.091-0.27,3.033-0.95
			c-0.174-0.687-0.368-1.204-1.042-1.148c-0.627,0.049-1.338,0.539-1.846,0.368c-1.75-0.616-3.105,0.213-4.523,0.922
			C373.491,40.893,373.655,41.325,373.85,41.339z"/>
		<path fill="#FFFFFF" d="M338.797,44.4c1.332,0.169,2.65,0.099,3.698-1.439c-1.824-1.552-3.408-0.886-4.987-0.396
			C337.43,43.727,337.965,44.287,338.797,44.4z"/>
		<path fill="#FFFFFF" d="M318.61,43.45c0.063-1.431-0.744-1.892-1.521-2.154c-0.669-0.226-1.463-0.184-2.186-0.114
			c-0.634,0.071-0.991,1.078-0.534,1.538c0.424,0.426,1.001,0.872,1.562,0.942C316.761,43.769,317.625,43.55,318.61,43.45z"/>
		<path fill="#FFFFFF" d="M349.836,135.761c-1.406-0.149-2.82-0.269-4.234-0.367c-0.193-0.007-0.432,0.12-0.595,0.255
			c-0.156,0.127-0.322,0.34-0.336,0.523s0.105,0.504,0.24,0.554c0.467,0.176,0.946,0.311,1.423,0.451h3.218
			c0.332-0.2,0.664-0.459,1.007-0.784C350.141,136.023,349.999,135.783,349.836,135.761z"/>
		<path fill="#FFFFFF" d="M320.095,31.234c-0.301,0.617,0.146,1.403,0.804,1.438c0.73,0.035,1.468-0.063,2.126-0.106
			c0.446-0.895,0.188-1.548-0.243-2.157h-2.099C320.451,30.661,320.24,30.934,320.095,31.234z"/>
		<path fill="#FFFFFF" d="M380.291,45.392c-0.213-0.355-0.295-0.667-0.437-0.703c-1.177-0.276-2.355-0.283-3.489,0.192
			c-0.497,0.213-0.521,1.077-0.061,1.389c0.98,0.665,2.045,0.893,3.093,0.283C379.808,46.313,380.028,45.753,380.291,45.392z"/>
		<path fill="#FFFFFF" d="M373.906,114.951c0.804,1.425,1.254,1.735,2.188,1.432c0.918-0.297,1.808-0.694,2.708-1.057
			C377.208,114.66,375.594,114.087,373.906,114.951z"/>
		<path fill="#FFFFFF" d="M329.086,120.236c0.327,0.618,0.551,1.024,0.77,1.289v-2.035
			C329.581,119.704,329.332,119.979,329.086,120.236z"/>
		<path fill="#FFFFFF" d="M317.966,32.078c-1.315-1.41-2.677-1.214-4.133-0.486v0.654C315.538,33.396,316.595,33.32,317.966,32.078z
			"/>
		<path fill="#FFFFFF" d="M326.62,114.618c-0.336-0.064-1.017,0.197-1.06,0.403c-0.092,0.447-0.042,1.113,0.248,1.417
			c0.713,0.744,1.29,0.603,2.718-0.402C328.311,115.008,327.438,114.788,326.62,114.618z"/>
		<path fill="#FFFFFF" d="M363.347,136.08c0.386-0.08,0.765-0.178,1.147-0.266C364.081,135.79,363.688,135.837,363.347,136.08z"/>
		<path fill="#FFFFFF" d="M395.539,115.178c-0.026,0.089-0.021,0.207-0.004,0.327c0.207-0.278,0.401-0.565,0.603-0.847
			C395.935,114.678,395.597,114.965,395.539,115.178z"/>
		<path fill="#FFFFFF" d="M388.129,88.417c-0.072,0.668-0.16,1.33-0.263,1.986c0.448,0.186,0.814,0.083,1.313-0.266
			c0.77-0.532,0.79-1.22,0.046-1.963C388.87,88.266,388.499,88.33,388.129,88.417z"/>
		<path fill="#FFFFFF" d="M320.118,95.146c0.923,0.014,1.847-0.084,2.769-0.142c-0.748-1.318-1.691-1.63-2.76-1.232
			c-0.234,0.092-0.504,0.468-0.511,0.716C319.608,94.715,319.935,95.146,320.118,95.146z"/>
		<path fill="#FFFFFF" d="M388.01,51.818c0.632,0.326,1.463-0.333,1.633-1.396c-0.178-0.178-0.396-0.603-0.729-0.708
			c-0.706-0.227-1.687,0.475-1.609,1.148C387.34,51.209,387.688,51.648,388.01,51.818z"/>
		<path fill="#FFFFFF" d="M355.859,129.519c-0.485,0.561-0.975,0.887-1.091,1.318c-0.164,0.603,0.863,1.325,1.597,1.24
			c0.461-0.057,1.095-0.815,0.868-1.176C356.937,130.419,356.426,130.063,355.859,129.519z"/>
		<path fill="#FFFFFF" d="M327.191,54.072c0.425-0.021,0.863-0.107,1.239-0.284c0.21-0.092,0.304-0.425,0.503-0.729
			c-0.938-0.29-1.742-0.532-2.551-0.772C326.004,53.76,326.174,54.122,327.191,54.072z"/>
		<path fill="#FFFFFF" d="M341.524,32.771c0.146-0.092,0.177-0.368,0.263-0.552c-0.029-0.093-0.021-0.227-0.086-0.284
			c-0.688-0.68-1.934-0.609-2.62,0.191c-0.093,0.099-0.079,0.468,0.021,0.553C339.746,33.226,340.738,33.261,341.524,32.771z"/>
		<path fill="#FFFFFF" d="M321.565,83.966c0.534,0.722,1.204,0.899,1.941,0.241c0.091-0.851-0.437-1.22-1.103-1.396
			c-0.244-0.057-0.68,0.086-0.818,0.275C321.438,83.293,321.416,83.774,321.565,83.966z"/>
		<path fill="#FFFFFF" d="M314.408,109.778c-0.122-0.228-0.328-0.411-0.575-0.607v1.419
			C314.264,110.416,314.564,110.063,314.408,109.778z"/>
		<path fill="#FFFFFF" d="M322.133,109.184c-0.387-0.078-0.838,0.05-1.234,0.171c-0.149,0.056-0.348,0.367-0.308,0.517
			c0.074,0.262,0.258,0.537,0.475,0.714c0.138,0.122,0.407,0.087,0.62,0.122c0.212-0.043,0.422-0.085,0.627-0.128
			c0.428-0.099,0.941-0.241,0.775-0.758C322.989,109.53,322.493,109.255,322.133,109.184z"/>
		<path fill="#FFFFFF" d="M336.398,135.727c-0.124-0.057-0.563,0.305-0.615,0.53c-0.096,0.378,0.173,0.738,0.597,0.92h0.966
			c0.174-0.111,0.382-0.283,0.704-0.481C337.369,136.278,336.908,135.932,336.398,135.727z"/>
		<path fill="#FFFFFF" d="M394.242,100.928c0.325-0.154,0.553-0.51,1.038-0.983c-0.62-0.262-1.011-0.589-1.321-0.524
			c-0.334,0.069-0.731,0.446-0.865,0.779C392.938,100.581,393.788,101.148,394.242,100.928z"/>
		<path fill="#FFFFFF" d="M378.901,110.317c0.109,0.708,0.716,0.658,1.236,0.461c0.277-0.1,0.5-0.327,0.981-0.66
			c-0.514-0.325-0.872-0.744-1.258-0.764c-0.177-0.013-0.351,0.027-0.503,0.104c-0.146,0.174-0.286,0.353-0.436,0.523
			C378.896,110.085,378.884,110.195,378.901,110.317z"/>
		<path fill="#FFFFFF" d="M323.29,58.245c0.058-0.142-0.276-0.439-0.546-0.829c-0.371,0.354-0.847,0.602-0.854,0.857
			c0,0.269,0.454,0.538,0.71,0.814C322.84,58.811,323.159,58.563,323.29,58.245z"/>
		<path fill="#FFFFFF" d="M348.129,130.036c-0.085,0.312-0.283,0.652-0.228,0.942c0.071,0.369,0.302,0.752,0.575,1.014
			c0.084,0.093,0.761-0.22,0.754-0.262c-0.096-0.461-0.28-0.907-0.437-1.354C348.57,130.263,348.353,130.15,348.129,130.036z"/>
		<path fill="#FFFFFF" d="M314.784,100.213c0.744,0.709,1.526,0.467,2.728,0.22C316.396,99.859,315.673,99.554,314.784,100.213z"/>
		<path fill="#FFFFFF" d="M320.24,100.313c0.375-0.064,0.712-0.313,1.076-0.482c-0.184-0.341-0.233-0.602-0.382-0.68
			c-0.561-0.297-1.375,0.021-1.574,0.581c-0.034,0.092-0.013,0.283,0.04,0.304C319.673,100.156,319.98,100.354,320.24,100.313z"/>
		<path fill="#FFFFFF" d="M365.289,35.84c0.228-0.127,0.354-0.432,0.604-0.75c-0.373-0.198-0.656-0.468-0.884-0.433
			c-0.253,0.05-0.563,0.341-0.65,0.596C364.248,35.6,364.929,36.039,365.289,35.84z"/>
		<path fill="#FFFFFF" d="M351.912,136.257c-0.212,0.426,0.135,0.851,0.614,0.851c0.444,0,0.895-0.191,1.877-0.425
			c-0.806-0.476-1.116-0.794-1.457-0.815C352.599,135.84,352.047,136.009,351.912,136.257z"/>
		<path fill="#FFFFFF" d="M319.333,126.267c0.208,0,0.418-0.325,0.751-0.617c-0.396-0.212-0.701-0.496-0.873-0.439
			c-0.335,0.136-0.595,0.454-0.885,0.702C318.66,126.04,319,126.26,319.333,126.267z"/>
		<path fill="#FFFFFF" d="M344.21,32.723c0.801,0.262,1.425,0.028,1.651-0.886c-0.674-0.524-1.347-0.667-1.906,0.092
			C343.849,32.063,344.04,32.673,344.21,32.723z"/>
		<path fill="#FFFFFF" d="M320.377,135.599c-0.08-0.044-0.605,0.475-0.573,0.546c0.181,0.326,0.479,0.588,0.861,1.013
			c0.276-0.39,0.595-0.715,0.542-0.802C321.005,136.051,320.704,135.768,320.377,135.599z"/>
		<path fill="#FFFFFF" d="M334.319,37.102c-0.496-0.375-0.773-0.652-1.105-0.779c-0.085-0.036-0.531,0.432-0.5,0.616
			c0.061,0.355,0.341,0.667,0.527,1C333.531,37.71,333.823,37.484,334.319,37.102z"/>
		<path fill="#FFFFFF" d="M377.771,50.585c0.089,0.497,0.535,0.61,0.963,0.453c0.245-0.091,0.429-0.347,0.868-0.715
			c-0.596-0.164-0.963-0.34-1.317-0.318C378.086,50.018,377.739,50.415,377.771,50.585z"/>
		<path fill="#FFFFFF" d="M383.897,120.974c-0.241,0.283,0.243,0.767,0.758,0.688c0.255-0.042,0.482-0.269,0.878-0.503
			c-0.386-0.256-0.612-0.524-0.853-0.531C384.414,120.612,384.063,120.769,383.897,120.974z"/>
		<path fill="#FFFFFF" d="M386.398,105.704c0.262,0.142,0.518,0.396,0.786,0.404c0.241,0.007,0.489-0.248,1.073-0.588
			c-0.677-0.191-1.027-0.369-1.378-0.362C386.717,105.158,386.554,105.506,386.398,105.704z"/>
		<path fill="#FFFFFF" d="M373.243,40.666c0.025-0.015,0.05-0.029,0.075-0.035c-0.007-0.015-0.019-0.029-0.025-0.044
			c-0.038,0.022-0.074,0.044-0.11,0.064c0.022,0.008,0.036,0.015,0.054,0.022C373.236,40.673,373.239,40.666,373.243,40.666z"/>
		<path fill="#FFFFFF" d="M373.183,40.651c-0.456-0.155-0.899-0.368-1.367-0.439c-0.135-0.021-0.333,0.397-0.507,0.609
			c0.217,0.177,0.493,0.524,0.643,0.475C372.382,41.154,372.776,40.885,373.183,40.651z"/>
		<path fill="#FFFFFF" d="M358.558,135.847c-0.134-0.057-0.356,0.085-0.541,0.142c0.124,0.227,0.251,0.46,0.372,0.701
			c0.156-0.121,0.306-0.241,0.46-0.354C358.757,136.165,358.7,135.91,358.558,135.847z"/>
		<path fill="#FFFFFF" d="M377.085,126.067c0.141,0.256,0.226,0.61,0.448,0.73c0.132,0.079,0.462-0.191,0.907-0.404
			c-0.396-0.29-0.595-0.51-0.835-0.58C377.469,125.771,377.258,125.97,377.085,126.067z"/>
		<path fill="#FFFFFF" d="M405.691,84.015c-0.063,0.107,0.121,0.518,0.149,0.51c0.069-0.009,0.146-0.017,0.224-0.026
			c0.005-0.291,0.022-0.579,0.022-0.871c0-0.009-0.001-0.017-0.001-0.025C405.922,83.741,405.779,83.869,405.691,84.015z"/>
		<path fill="#FFFFFF" d="M387.106,110.14c0.255,0.106,0.496,0.248,0.748,0.298c0.06,0.008,0.279-0.383,0.252-0.403
			c-0.206-0.206-0.45-0.362-0.688-0.524C387.33,109.687,387.244,109.863,387.106,110.14z"/>
		<path fill="#FFFFFF" d="M392.23,55.807c0.05,0.086,0.098,0.248,0.141,0.248c0.199-0.014,0.393-0.07,0.588-0.106
			c-0.071-0.142-0.142-0.276-0.212-0.417C392.577,55.623,392.403,55.715,392.23,55.807z"/>
		<path fill="#FFFFFF" d="M393.483,89.748c0.05-0.164,0.178-0.369,0.128-0.489c-0.057-0.135-0.277-0.206-0.434-0.305
			c-0.056,0.178-0.184,0.382-0.141,0.53C393.079,89.605,393.324,89.67,393.483,89.748z"/>
		<path fill="#FFFFFF" d="M321.319,89.103c-0.116-0.12-0.229-0.254-0.343-0.375c-0.105,0.127-0.228,0.255-0.302,0.396
			c-0.018,0.035,0.146,0.227,0.185,0.212C321.019,89.287,321.168,89.188,321.319,89.103z"/>
		<path fill="#FFFFFF" d="M339.385,37.371c0.111,0.241,0.262,0.46,0.401,0.694c0.131-0.113,0.265-0.234,0.481-0.418
			c-0.248-0.184-0.479-0.354-0.705-0.532C339.499,37.201,339.363,37.321,339.385,37.371z"/>
		<path fill="#FFFFFF" d="M372.425,126.586c-0.07-0.021-0.174,0.085-0.266,0.135c0.182,0.213,0.359,0.424,0.538,0.63
			c0.118-0.119,0.23-0.24,0.451-0.474C372.875,126.763,372.655,126.649,372.425,126.586z"/>
		<path fill="#FFFFFF" d="M383.411,125.799c0.039,0.093,0.085,0.171,0.125,0.262c0.095-0.021,0.19-0.034,0.287-0.057
			c-0.047-0.092-0.075-0.211-0.153-0.255C383.614,125.714,383.5,125.777,383.411,125.799z"/>
		<polygon fill="#FFFFFF" points="334.064,41.92 333.858,41.821 333.844,41.99 		"/>
		<polygon fill="#FFFFFF" points="390.419,110.331 390.462,110.133 390.228,110.197 		"/>
		<path fill="#FFFFFF" d="M382.462,115.694c-0.019,0.036,0.121,0.178,0.195,0.186c0.077,0.007,0.24-0.107,0.233-0.136
			c-0.027-0.162-0.107-0.312-0.17-0.475C382.628,115.411,382.522,115.546,382.462,115.694z"/>
	</g>
</g>
<g id="top_texture">
	<g>
		<path fill="#FFFFFF" d="M-181.847,61.956c-2.736,0.312-3.006,0.512-3.226,2.427c1.152-0.292,2.147-0.544,3.256-0.827
			C-181.826,63.06-181.837,62.514-181.847,61.956z"/>
		<path fill="#FFFFFF" d="M-134.457,44.702c1.239,0.081,1.707-0.83,2.254-2.175c-0.576-0.013-1.009-0.146-1.303-0.002
			c-0.491,0.242-0.908,0.646-1.326,1.014c-0.181,0.16-0.443,0.539-0.402,0.585C-135.022,44.367-134.736,44.682-134.457,44.702z"/>
		<path fill="#FFFFFF" d="M-177.953,74.734c0.181,0.091,0.356,0.178,0.533,0.267v-0.84
			C-177.601,74.305-177.779,74.485-177.953,74.734z"/>
		<path fill="#FFFFFF" d="M-182.33,48.126c-0.149-0.176-0.297-0.353-0.447-0.529c-0.958,0.137-1.639,0.562-1.766,2.223
			C-183.572,49.078-182.953,48.603-182.33,48.126z"/>
		<path fill="#FFFFFF" d="M-181.545,110.571c0.522,0.194,1.045,0.398,1.579,0.561c0.024,0.008,0.245-0.503,0.231-0.51
			c-0.491-0.268-0.999-0.501-1.503-0.74C-181.342,110.111-181.444,110.34-181.545,110.571z"/>
		<path fill="#FFFFFF" d="M-181.122,35.082c-0.108-0.376-0.189-0.766-0.354-1.114c-0.025-0.051-0.458,0.093-0.701,0.146
			c0.171,0.376,0.342,0.753,0.512,1.13C-181.483,35.19-181.303,35.137-181.122,35.082z"/>
		<path fill="#FFFFFF" d="M-180.98,88.107c-0.971-0.328-1.384,0.211-2.086,0.881C-182.037,89.086-181.376,89.131-180.98,88.107z"/>
		<path fill="#FFFFFF" d="M-179.636,59.107c0.082-0.458,0.155-0.848,0.294-1.627C-180.65,58.356-180.65,58.356-179.636,59.107z"/>
		<path fill="#FFFFFF" d="M-190.605,99.962c0.211-0.33,0.424-0.661,0.634-0.991c-0.185-0.096-0.371-0.189-0.557-0.287
			c-0.14,0.351-0.291,0.698-0.403,1.057C-190.943,99.775-190.719,99.887-190.605,99.962z"/>
		<path fill="#FFFFFF" d="M-186.294,43.476c0.87,0.007,1.395,0.011,1.919,0.017C-184.914,42.687-185.438,42.607-186.294,43.476z"/>
		<path fill="#FFFFFF" d="M-180.139,69.871c-1.166,0.577-1.067,1.127-0.665,2.021C-180.561,71.151-180.401,70.665-180.139,69.871z"
			/>
		<path fill="#FFFFFF" d="M-188.192,135.206c-0.453-0.083-0.906-0.167-1.36-0.252c-0.031,0.134-0.065,0.266-0.097,0.397
			c0.444,0.138,0.887,0.275,1.33,0.413C-188.276,135.579-188.234,135.394-188.192,135.206z"/>
		<path fill="#FFFFFF" d="M-157.835,44.931h0.685c0.016-0.016,0.028-0.028,0.044-0.044
			C-157.394,44.885-157.634,44.897-157.835,44.931z"/>
		<path fill="#FFFFFF" d="M-182.119,41.545c0.178-0.074,0.243-0.416,0.44-0.795c-0.5-0.034-0.82-0.095-1.124-0.044
			c-0.059,0.01-0.15,0.55-0.036,0.673C-182.693,41.537-182.313,41.625-182.119,41.545z"/>
		<path fill="#FFFFFF" d="M-148.331,81.087c-0.123-0.171-0.245-0.341-0.369-0.513c-0.32,0.288-0.641,0.576-0.96,0.865
			c0.069,0.092,0.14,0.182,0.209,0.273C-149.077,81.504-148.705,81.296-148.331,81.087z"/>
		<path fill="#FFFFFF" d="M-159.419,93.012c0.06,0.158,0.116,0.309,0.174,0.461h0.613C-158.557,93.13-158.769,93.095-159.419,93.012
			z"/>
		<path fill="#FFFFFF" d="M-167.401,82.617c0.032-0.002,0.054-0.346,0.099-0.674c-0.395,0.011-0.712-0.008-1.013,0.053
			c-0.053,0.012-0.072,0.523-0.047,0.529C-168.047,82.594-167.722,82.627-167.401,82.617z"/>
		<path fill="#FFFFFF" d="M-178.699,31.594c0.038-0.2,0.154-0.436,0.087-0.588c-0.065-0.146-0.322-0.206-0.562-0.341
			c-0.019,0.305-0.102,0.548-0.024,0.713C-179.141,31.501-178.874,31.525-178.699,31.594z"/>
		<path fill="#FFFFFF" d="M-163.822,31.123c-0.298-0.176-0.596-0.349-0.893-0.526c-0.104,0.151-0.21,0.299-0.315,0.45
			c0.285,0.183,0.561,0.385,0.865,0.525C-164.127,31.589-163.941,31.281-163.822,31.123z"/>
		<path fill="#FFFFFF" d="M-182.488,126.3c0.113,0.002,0.226-0.001,0.338-0.001c0.039-0.416,0.08-0.834,0.12-1.253
			c-0.187-0.007-0.375-0.016-0.562-0.023C-182.558,125.447-182.522,125.874-182.488,126.3z"/>
		<path fill="#FFFFFF" d="M-192.292,89.405c-0.024-0.121-0.048-0.241-0.072-0.36c-0.287,0.053-0.576,0.099-0.856,0.174
			c-0.018,0.005,0.03,0.249,0.048,0.383C-192.878,89.536-192.584,89.472-192.292,89.405z"/>
	</g>
	<g>
		<path fill="#FFFFFF" d="M17.936,43.103c1.183-0.661,2.073-1.159,3.148-1.76c-1.12-0.777-1.966-1.67-3.406-0.945
			C17.757,41.236,17.83,42,17.936,43.103z"/>
		<path fill="#FFFFFF" d="M23.343,37.439c0.453-0.713,0.65-1.039,0.739-1.571c-0.551-0.313-1.104-0.621-1.666-0.914
			C22.331,35.51,22.645,36.299,23.343,37.439z"/>
		<path fill="#FFFFFF" d="M46.112,92.791c1.727-0.917,3.524-1.733,4.507-3.561C48.738,89.934,47.423,91.373,46.112,92.791z"/>
		<path fill="#FFFFFF" d="M-18.527,135.445c0.207,0.675,0.495,1.144,0.842,1.479c0.599,0.16,1.2,0.313,1.806,0.454
			c0.158-0.201,0.343-0.492,0.569-0.763C-16.446,136.201-17.353,135.872-18.527,135.445z"/>
		<path fill="#FFFFFF" d="M3.12,39.766c0.203,0.188,0.775-0.028,1.178-0.059c0.01-0.144,0.021-0.288,0.031-0.431
			c-0.498-0.186-0.994-0.371-1.41-0.525c-0.079-0.732-0.147-1.359-0.265-2.462C1.666,37.978,2.237,38.956,3.12,39.766z"/>
		<path fill="#FFFFFF" d="M13.79,39.474c0.142-0.666,0.283-1.331,0.53-2.492c-0.948,0.435-1.474,0.677-2.002,0.918
			c0.334,0.563,0.67,1.124,1.003,1.685C13.477,39.548,13.634,39.511,13.79,39.474z"/>
		<path fill="#FFFFFF" d="M-4.166,138.819c0.354,0.007,0.705,0.025,1.06,0.025c0.153,0,0.304-0.01,0.457-0.011
			c-0.008-0.291-0.046-0.655-0.1-1.143C-3.069,138.293-3.749,138.467-4.166,138.819z"/>
		<path fill="#FFFFFF" d="M-22.395,134.335c1.951-0.33,1.87-1.434,2.145-2.588C-21.824,131.964-21.69,133.146-22.395,134.335z"/>
		<path fill="#FFFFFF" d="M-57.108,93.871c0.088,0.495,0.178,0.99,0.279,1.482c0.267,0.06,0.548,0.104,0.82,0.165
			C-56.066,94.453-56.5,94.054-57.108,93.871z"/>
		<path fill="#FFFFFF" d="M-24.439,50.3c0.868-0.02,1.792-0.041,2.891-0.065c0.02-0.011,0.038-0.022,0.058-0.033
			C-23.072,48.854-23.715,48.92-24.439,50.3z"/>
		<path fill="#FFFFFF" d="M-4.645,40.062c0.333-0.153,0.511-0.638,0.997-1.32c-0.863-0.216-1.341-0.335-1.816-0.454
			c-0.058,0.444-0.25,0.935-0.125,1.32C-5.511,39.855-4.86,40.163-4.645,40.062z"/>
		<path fill="#FFFFFF" d="M-47.455,115.787c0.258,0.286,0.517,0.573,0.977,1.08c0.375-0.91,0.598-1.443,0.819-1.979
			c-0.11-0.1-0.224-0.2-0.333-0.3C-46.481,114.988-46.967,115.388-47.455,115.787z"/>
		<path fill="#FFFFFF" d="M18.052,35.99c-0.624-0.314-1.233-0.622-1.79-0.902c-0.076,0.429-0.167,0.924-0.25,1.4
			C16.627,36.356,17.525,37.322,18.052,35.99z"/>
		<path fill="#FFFFFF" d="M-9.248,40.768c-0.333-0.944-0.844-1.26-1.633-0.781c-0.153,0.091-0.262,0.558-0.165,0.707
			C-10.491,41.559-9.901,41.084-9.248,40.768z"/>
		<path fill="#FFFFFF" d="M33.704,110.607c0.82-0.158,1.476-0.284,2.452-0.473C34.672,108.783,34.52,108.818,33.704,110.607z"/>
		<path fill="#FFFFFF" d="M45.22,85.841c0.994,0.017,1.99,0.035,3.272,0.058C47.288,84.781,46.276,84.983,45.22,85.841z"/>
		<path fill="#FFFFFF" d="M49.043,66.136c-0.067-0.2-0.127-0.401-0.196-0.6c-0.219,0.123-0.436,0.244-0.661,0.371
			C48.541,66.016,48.814,66.091,49.043,66.136z"/>
		<path fill="#FFFFFF" d="M41.318,61.281c-0.185-0.096-0.37-0.191-0.557-0.285c-0.375,0.754-0.75,1.506-1.127,2.259
			c0.166,0.069,0.332,0.142,0.497,0.211C40.527,62.738,40.922,62.009,41.318,61.281z"/>
		<path fill="#FFFFFF" d="M40.478,66.496c1.363-0.304,1.363-0.304,0.696-1.748C40.874,65.504,40.676,66.002,40.478,66.496z"/>
		<path fill="#FFFFFF" d="M-26.284,123.074c0.69,0.228,1.234,0.405,1.89,0.621C-24.729,122.266-24.729,122.266-26.284,123.074z"/>
		<path fill="#FFFFFF" d="M-4.931,131.635c1.086,1.3,1.335,0.311,1.736-0.164c-0.08-0.178-0.161-0.354-0.241-0.531
			C-3.893,131.151-4.35,131.366-4.931,131.635z"/>
		<path fill="#FFFFFF" d="M-35.114,110.409c0.34-0.554,0.679-1.109,1.019-1.665C-34.874,109.013-35.592,109.333-35.114,110.409z"/>
		<path fill="#FFFFFF" d="M41.684,72.577c-0.583,0.325-1.132,0.633-1.803,1.007C41.598,73.764,41.598,73.764,41.684,72.577z"/>
		<path fill="#FFFFFF" d="M-41.917,103.719c0.287-0.378,0.573-0.756,1.038-1.369C-42.039,102.357-42.342,102.726-41.917,103.719z"/>
		<path fill="#FFFFFF" d="M-24.857,47.253c-0.846,0.213-1.369,0.346-2.345,0.592C-25.939,48.614-25.374,48.624-24.857,47.253z"/>
		<path fill="#FFFFFF" d="M-51.064,62.871c0.653-0.535,1.172-0.965,1.692-1.391C-50.805,61.587-50.805,61.587-51.064,62.871z"/>
		<path fill="#FFFFFF" d="M-1.754,137.721c0.365,0.261,0.755,0.539,1.43,1.023C-0.95,137.145-0.95,137.145-1.754,137.721z"/>
		<path fill="#FFFFFF" d="M14.214,118.023c-0.066,0.231-0.146,0.485-0.093,0.516c0.328,0.194,0.718,0.278,1.085,0.401
			c0.073-0.235,0.146-0.471,0.22-0.705c-0.315-0.117-0.629-0.233-0.944-0.349C14.394,117.933,14.304,117.979,14.214,118.023z"/>
		<path fill="#FFFFFF" d="M10.359,43.283c-0.476-0.677-0.729-1.042-1.005-1.435C8.572,42.918,8.594,42.964,10.359,43.283z"/>
		<path fill="#FFFFFF" d="M0.783,39.948c0.196-0.2,0.228-0.563,0.326-0.859c-0.249-0.08-0.607-0.297-0.722-0.208
			c-0.228,0.179-0.321,0.529-0.54,0.945C0.284,39.896,0.672,40.06,0.783,39.948z"/>
		<path fill="#FFFFFF" d="M9.582,30.205c-0.51-0.119-1.02-0.238-1.534-0.342c-0.008,0.124-0.017,0.249-0.025,0.373
			C8.543,30.225,9.063,30.215,9.582,30.205z"/>
		<path fill="#FFFFFF" d="M-31.837,51.09c0.16-0.04,0.384-0.523,0.325-0.594c-0.192-0.227-0.503-0.353-0.959-0.638
			c-0.036,0.479-0.155,0.796-0.045,0.961C-32.401,50.995-32.039,51.14-31.837,51.09z"/>
		<path fill="#FFFFFF" d="M44.614,60.894c-0.099,0.108-0.199,0.217-0.297,0.325c0.285,0.262,0.569,0.523,0.855,0.784
			c0.097-0.108,0.193-0.212,0.289-0.319C45.179,61.418,44.896,61.155,44.614,60.894z"/>
		<path fill="#FFFFFF" d="M32.354,53.842c-0.887-0.174-1.444-0.121-1.673,0.849C31.432,54.94,31.981,54.865,32.354,53.842z"/>
		<path fill="#FFFFFF" d="M-18.326,134.9c0.059,0.027,0.213-0.147,0.382-0.273c-0.267-0.429-0.532-0.857-0.868-1.398
			C-19.524,134.2-18.995,134.587-18.326,134.9z"/>
		<path fill="#FFFFFF" d="M-28.718,47.886c0.233-0.077,0.382-0.406,0.568-0.625c-0.159-0.097-0.319-0.192-0.478-0.29
			c-0.245,0.029-0.562-0.028-0.718,0.106c-0.17,0.145-0.19,0.465-0.275,0.709C-29.316,47.829-28.98,47.971-28.718,47.886z"/>
		<path fill="#FFFFFF" d="M-11.699,39.412c0.014-0.083-0.409-0.338-0.438-0.31c-0.193,0.177-0.358,0.401-0.477,0.636
			c-0.084,0.167-0.081,0.377-0.129,0.631c0.298-0.091,0.569-0.098,0.702-0.236C-11.863,39.95-11.742,39.669-11.699,39.412z"/>
		<path fill="#FFFFFF" d="M-54.26,71.108c1.156,0.49,1.135-0.237,1.041-0.942C-53.532,70.448-53.844,70.731-54.26,71.108z"/>
		<path fill="#FFFFFF" d="M-4.777,23.784c-0.306,0.008-0.613,0.01-0.918,0.023l0,0C-5.391,23.794-5.083,23.792-4.777,23.784
			L-4.777,23.784z"/>
		<path fill="#FFFFFF" d="M-28.566,127.487c0.027,0.141,0.053,0.284,0.081,0.424c0.369-0.077,0.739-0.152,1.106-0.23
			c-0.024-0.132-0.049-0.263-0.075-0.396C-27.824,127.354-28.196,127.421-28.566,127.487z"/>
		<path fill="#FFFFFF" d="M-12.096,34.736c0.16,0.037,0.392-0.27,0.817-0.601c-0.469-0.186-0.703-0.351-0.936-0.349
			c-0.141,0.001-0.424,0.331-0.396,0.383C-12.492,34.397-12.307,34.692-12.096,34.736z"/>
		<path fill="#FFFFFF" d="M22.979,128.404c0.128,0.144,0.352,0.421,0.371,0.407c0.288-0.204,0.549-0.445,0.815-0.675
			c-0.111-0.145-0.221-0.289-0.331-0.431C23.549,127.938,23.264,128.172,22.979,128.404z"/>
		<path fill="#FFFFFF" d="M42.012,55.301c0.1,0.067,0.2,0.135,0.299,0.205c0.247-0.295,0.491-0.586,0.74-0.879
			c-0.161-0.105-0.319-0.211-0.477-0.318C42.386,54.639,42.199,54.969,42.012,55.301z"/>
	</g>
	<g>
		<path fill="#FFFFFF" d="M185.301,35.461c-0.47-0.584-0.851-1.059-1.302-1.624c-0.635,0.419-1.146,0.757-1.759,1.159
			c0.462,0.596,0.837,1.082,1.28,1.656C184.137,36.24,184.647,35.898,185.301,35.461z"/>
		<path fill="#FFFFFF" d="M219.722,106.207c1.214,0.896,2.538,0.547,3.863,0.232c0.021-0.165,0.041-0.335,0.063-0.501
			c-1.267-0.177-2.532-0.354-3.798-0.531C219.807,105.675,219.764,105.941,219.722,106.207z"/>
		<path fill="#FFFFFF" d="M140.319,92.102c0.382,0.178,0.689,0.216,0.962,0.183c-0.08-0.356-0.156-0.715-0.226-1.075
			C140.863,91.403,140.638,91.688,140.319,92.102z"/>
		<path fill="#FFFFFF" d="M136.86,76.411c-0.181,0.596-0.367,1.216-0.555,1.83c1.063,0.426,1.554,0.088,1.762-0.657
			C138.281,76.818,137.813,76.527,136.86,76.411z"/>
		<path fill="#FFFFFF" d="M226.457,109.187c0.081-0.696,0.149-1.277,0.237-2.044C225.336,108.315,225.336,108.315,226.457,109.187z"
			/>
		<path fill="#FFFFFF" d="M160.266,39.803c0.26-0.651,0.459-1.151,0.658-1.651c-0.161-0.118-0.322-0.23-0.483-0.345
			c-0.604,0.249-1.438,0.324-0.95,1.478C159.573,39.485,159.912,39.576,160.266,39.803z"/>
		<path fill="#FFFFFF" d="M203.494,48.147c0.849,0.327,1.13-0.358,1.469-0.903c0.032-0.054,0.01-0.144,0.021-0.499
			c-0.89-0.11-1.516,0.043-1.788,0.878C203.151,47.759,203.344,48.088,203.494,48.147z"/>
		<path fill="#FFFFFF" d="M124.925,72.106c-0.094,0.438-0.189,0.874-0.272,1.314c0.12,0.14,0.259,0.28,0.425,0.423
			C125.02,73.196,124.97,72.632,124.925,72.106z"/>
		<path fill="#FFFFFF" d="M176.655,45.202c0.194-0.041,0.299-0.519,0.555-1.019c-0.595-0.052-1.012-0.2-1.321-0.075
			c-0.19,0.074-0.217,0.562-0.315,0.864C175.937,45.063,176.326,45.269,176.655,45.202z"/>
		<path fill="#FFFFFF" d="M158.406,122.687c0.631,0.584,1.229,1.14,1.946,1.805C159.997,122.302,159.997,122.302,158.406,122.687z"
			/>
		<path fill="#FFFFFF" d="M153.9,117.259c0.135-0.053,0.172-0.348,0.323-0.685c-0.596-0.148-1.102-0.275-1.752-0.436
			C152.525,117.345,153.023,117.61,153.9,117.259z"/>
		<path fill="#FFFFFF" d="M217.388,79.335c1.61-0.14,1.528-0.91,1.081-1.893C218.16,77.982,217.853,78.522,217.388,79.335z"/>
		<path fill="#FFFFFF" d="M148.107,48.952c0.197-0.07,0.26-0.524,0.46-0.99c-0.588-0.073-0.977-0.121-1.367-0.17
			c-0.027,0.335-0.197,0.786-0.046,0.974C147.32,48.969,147.83,49.048,148.107,48.952z"/>
		<path fill="#FFFFFF" d="M212.617,116.566c1.031-0.33,1.724-0.552,2.531-0.81C214.123,114.992,214.123,114.992,212.617,116.566z"/>
		<path fill="#FFFFFF" d="M220.444,97.527c0.497,0.281,0.886,0.499,1.434,0.804c0.09-0.921-0.173-1.293-0.883-1.258
			C220.847,97.081,220.713,97.299,220.444,97.527z"/>
		<path fill="#FFFFFF" d="M148.735,44.463c0.083-0.001,0.164-0.178,0.312-0.349c-0.164-0.195-0.305-0.459-0.521-0.59
			c-0.224-0.131-0.522-0.134-0.98-0.233C147.372,44.579,148.104,44.471,148.735,44.463z"/>
		<path fill="#FFFFFF" d="M157.337,119.019c0.479-0.238,0.919-0.454,1.358-0.669C157.313,118.002,157.313,118.002,157.337,119.019z"
			/>
		<path fill="#FFFFFF" d="M155.732,116.78c-0.319,0.271-0.603,0.581-0.895,0.881c0.172,0.159,0.345,0.319,0.518,0.48
			c0.28-0.33,0.559-0.655,0.81-1.002C156.175,117.128,155.76,116.756,155.732,116.78z"/>
		<path fill="#FFFFFF" d="M221.729,87.347c0.017-0.075-0.169-0.195-0.313-0.35c-0.322,0.425-0.636,0.836-1.058,1.388
			C221.542,88.668,221.592,87.939,221.729,87.347z"/>
		<path fill="#FFFFFF" d="M204.256,113.105c0.467,0.072,0.933,0.146,1.397,0.218c0.02-0.169,0.04-0.337,0.06-0.506
			c-0.469-0.051-0.936-0.105-1.405-0.157C204.29,112.808,204.272,112.956,204.256,113.105z"/>
		<path fill="#FFFFFF" d="M214.388,107.422c0.252,0.198,0.577,0.35,0.894,0.393c0.093,0.01,0.239-0.4,0.453-0.781
			c-0.497-0.124-0.812-0.265-1.115-0.242C214.521,106.797,214.329,107.375,214.388,107.422z"/>
		<path fill="#FFFFFF" d="M131.58,77.669c0.425-0.401,0.734-0.696,1.154-1.095C131.528,76.475,131.528,76.475,131.58,77.669z"/>
		<path fill="#FFFFFF" d="M129.794,75.137c0.493,0.083,0.987,0.167,1.48,0.253c0.026-0.2,0.052-0.398,0.076-0.598
			c-0.502-0.04-1.007-0.078-1.511-0.12C129.825,74.826,129.811,74.981,129.794,75.137z"/>
		<path fill="#FFFFFF" d="M129.713,107.311c-0.537-0.065-0.801-0.142-1.008-0.119c0.117,0.255,0.237,0.509,0.358,0.762
			c0.056,0.014,0.11,0.04,0.167,0.045C129.333,108.007,129.469,107.671,129.713,107.311z"/>
		<path fill="#FFFFFF" d="M158.916,116.909c0.354,0.314,0.706,0.626,1.058,0.938c0.063-0.063,0.123-0.125,0.186-0.188
			c-0.147-0.164-0.294-0.327-0.441-0.49c-0.226-0.129-0.452-0.256-0.675-0.39C159.001,116.823,158.959,116.866,158.916,116.909z"/>
		<path fill="#FFFFFF" d="M178.221,34.983c0.131-0.042,0.136-0.468,0.248-0.924c-0.439,0.042-0.771-0.026-0.911,0.107
			c-0.172,0.167-0.181,0.5-0.261,0.762C177.609,34.958,177.947,35.073,178.221,34.983z"/>
		<path fill="#FFFFFF" d="M197.784,50.012c-0.159-0.001-0.319-0.005-0.483-0.008c0.019,0.131,0.037,0.262,0.056,0.394
			c0.138,0.078,0.274,0.158,0.412,0.238C197.773,50.427,197.779,50.22,197.784,50.012z"/>
		<path fill="#FFFFFF" d="M144.043,58.434c0.114-0.038,0.145-0.326,0.296-0.717c-0.434,0.071-0.713,0.053-0.903,0.172
			c-0.115,0.072-0.096,0.361-0.136,0.555C143.55,58.446,143.82,58.508,144.043,58.434z"/>
		<path fill="#FFFFFF" d="M178.827,132.427c-0.138,0.052-0.161,0.411-0.236,0.632c0.239,0.052,0.479,0.104,0.781,0.172
			c0.071-0.293,0.184-0.609,0.148-0.627C179.305,132.495,179.019,132.358,178.827,132.427z"/>
	</g>
	<g>
		<path fill="#FFFFFF" d="M319.034,121.481c-1.192-0.258-2.401-0.441-3.603-0.646c-0.039,0.182-0.081,0.365-0.12,0.549
			c1.015,1.187,2.261,1.67,4.163,0.94C319.28,121.937,319.199,121.519,319.034,121.481z"/>
		<path fill="#FFFFFF" d="M393.143,90.048c-0.345,2.074,0.011,2.431,2.01,2.012C394.701,90.18,394.701,90.18,393.143,90.048z"/>
		<path fill="#FFFFFF" d="M320.758,134.387c-0.406,0.857-1.195,1.785,0.262,2.786c0.333-1.125,0.643-2.176,0.951-3.227
			c-0.106-0.102-0.213-0.203-0.321-0.304C321.344,133.886,320.908,134.067,320.758,134.387z"/>
		<path fill="#FFFFFF" d="M330.629,133.117c0.587-0.328,1.122-0.628,1.908-1.066c-0.524-0.517-0.928-0.915-1.555-1.529
			C330.633,131.578,329.697,132.139,330.629,133.117z"/>
		<path fill="#FFFFFF" d="M324.319,65.97c0.571,0.227,0.944,0.376,1.387,0.551c-0.119,0.469-0.233,0.917-0.386,1.521
			c0.998-0.428,1.896-0.8,1.418-1.918C326.187,64.847,325.307,65.74,324.319,65.97z"/>
		<path fill="#FFFFFF" d="M319.953,61.223c-0.91,0.586-2.161-0.768-3.178,0.639C318.276,62.682,319.165,62.17,319.953,61.223z"/>
		<path fill="#FFFFFF" d="M387.787,61.641c0.533,0.659,0.804,0.995,1.075,1.33c0.445-0.402,0.897-0.799,1.325-1.22
			c0.041-0.042-0.072-0.243-0.142-0.456C389.5,61.377,388.941,61.465,387.787,61.641z"/>
		<path fill="#FFFFFF" d="M328.661,62.688c0.046,0.78,0.036,1.059,0.083,1.332c0.096,0.574,0.234,1.301,1.005,0.9
			c0.039-0.02,0.074-0.053,0.106-0.095v-1.547C329.607,63.111,329.154,62.959,328.661,62.688z"/>
		<path fill="#FFFFFF" d="M394.086,66.298c0.686,0.545,1.148,0.912,1.716,1.366c0.264-0.479,0.485-0.875,0.911-1.646
			C395.614,66.135,394.962,66.204,394.086,66.298z"/>
		<path fill="#FFFFFF" d="M378.875,57.328c0.145,0.165,0.281,0.338,0.423,0.506C379.195,57.557,379.052,57.399,378.875,57.328z"/>
		<path fill="#FFFFFF" d="M394.086,98.276c0.028,0.78,0.051,1.432,0.089,2.531C395.168,99.199,395.168,99.199,394.086,98.276z"/>
		<path fill="#FFFFFF" d="M323.98,36.963c-0.766-0.855-1.222-1.366-1.679-1.877c-0.152,0.144-0.299,0.287-0.449,0.429
			C321.837,36.581,322.433,36.941,323.98,36.963z"/>
		<path fill="#FFFFFF" d="M324.196,60.26c0.888-0.053,1.773-0.105,2.891-0.174C325.887,59.063,325.059,59.908,324.196,60.26z"/>
		<path fill="#FFFFFF" d="M385.453,62.522c0.278-0.061,0.477-0.512,0.862-0.971c-1.029-0.174-1.425-0.363-1.655-0.242
			c-0.196,0.102-0.354,0.756-0.256,0.836C384.682,62.375,385.132,62.591,385.453,62.522z"/>
		<path fill="#FFFFFF" d="M360.183,124.316c-0.223,0.174-0.396,0.643-0.317,0.905c0.061,0.196,0.546,0.265,1.02,0.466
			c0.076-0.488,0.262-0.886,0.136-1.091C360.894,124.391,360.324,124.209,360.183,124.316z"/>
		<path fill="#FFFFFF" d="M381.043,117.353c-0.694,0.024-1.286,0.045-1.989,0.069C380.168,118.37,380.168,118.37,381.043,117.353z"
			/>
		<path fill="#FFFFFF" d="M316.423,97.825c-0.664-0.283-1.3-0.554-2.115-0.902C315.571,98.896,315.571,98.896,316.423,97.825z"/>
		<path fill="#FFFFFF" d="M329.855,122.386c-0.425-0.178-0.854-0.357-1.439-0.602c1.081,1.229,1.081,1.229,2.284,0.956
			c-0.213-0.09-0.408-0.171-0.599-0.251h-0.246V122.386z"/>
		<path fill="#FFFFFF" d="M327.784,137.177h0.501c0.265-0.214,0.557-0.449,0.905-0.729
			C328.129,136.109,327.937,136.654,327.784,137.177z"/>
		<path fill="#FFFFFF" d="M322.382,62.83c0.682-0.382,1.165-0.651,1.913-1.07C322.971,61.727,322.971,61.727,322.382,62.83z"/>
		<path fill="#FFFFFF" d="M370.084,124.954c0.063,0.113,0.128,0.229,0.191,0.344c0.453-0.217,0.91-0.436,1.362-0.652
			c-0.073-0.146-0.146-0.292-0.219-0.437C370.975,124.457,370.528,124.707,370.084,124.954z"/>
		<path fill="#FFFFFF" d="M330.671,125.149c-0.18-0.182-0.509-0.214-0.774-0.309c-0.074,0.247-0.284,0.611-0.192,0.723
			c0.181,0.218,0.532,0.302,1.067,0.569C330.73,125.608,330.799,125.281,330.671,125.149z"/>
		<path fill="#FFFFFF" d="M368.042,44.881c-0.183-0.017-0.369-0.037-0.554-0.054c-0.056,0.547-0.111,1.091-0.168,1.637
			c0.161,0.019,0.323,0.038,0.483,0.057C367.883,45.975,367.965,45.427,368.042,44.881z"/>
		<path fill="#FFFFFF" d="M346.669,133.444c0.187,0.445,0.375,0.891,0.563,1.338c0.106-0.049,0.215-0.096,0.322-0.144
			c-0.192-0.447-0.382-0.893-0.574-1.339C346.876,133.347,346.772,133.396,346.669,133.444z"/>
		<path fill="#FFFFFF" d="M387.707,92.974c0.257,0.145,0.514,0.291,0.782,0.415c0.013,0.007,0.198-0.285,0.183-0.302
			c-0.221-0.195-0.458-0.367-0.694-0.544C387.889,92.687,387.797,92.828,387.707,92.974z"/>
		<path fill="#FFFFFF" d="M328.201,126.017c-0.162,0.289-0.186,0.652-0.268,0.986c0.094,0.039,0.188,0.08,0.281,0.121
			c0.301-0.342,0.6-0.684,0.9-1.024c-0.098-0.126-0.192-0.253-0.288-0.379C328.612,125.816,328.295,125.854,328.201,126.017z"/>
		<path fill="#FFFFFF" d="M363.059,128.667c0.307,0.048,0.613,0.097,0.921,0.145c0.021-0.099,0.046-0.194,0.068-0.292
			c-0.286-0.092-0.57-0.183-0.856-0.272C363.147,128.389,363.104,128.529,363.059,128.667z"/>
		<path fill="#FFFFFF" d="M323.279,134.413c0.02,0.135,0.037,0.27,0.056,0.404c0.399-0.017,0.798-0.032,1.196-0.048
			c-0.003-0.193-0.004-0.386-0.006-0.58C324.109,134.266,323.694,134.338,323.279,134.413z"/>
		<path fill="#FFFFFF" d="M329.694,51.322c0.01,0.129,0.016,0.366,0.035,0.367c0.042,0.003,0.084-0.001,0.126,0.001v-0.371
			C329.802,51.32,329.748,51.321,329.694,51.322z"/>
		<path fill="#FFFFFF" d="M317.66,72.039c-0.313-0.16-0.638-0.294-0.962-0.433c-0.073,0.184-0.149,0.369-0.224,0.55
			c0.353,0.086,0.703,0.178,1.061,0.236C317.559,72.397,317.676,72.046,317.66,72.039z"/>
	</g>
</g>
</svg>
